<?xml version="1.0" standalone="no"?>
<!DOCTYPE svg PUBLIC "-//W3C//DTD SVG 20010904//EN"
 "http://www.w3.org/TR/2001/REC-SVG-20010904/DTD/svg10.dtd">
<svg version="1.0" xmlns="http://www.w3.org/2000/svg"
 width="794.000000pt" height="635.000000pt" viewBox="0 0 794.000000 635.000000"
 preserveAspectRatio="xMidYMid meet">
<metadata>
Created by potrace 1.16, written by Peter Selinger 2001-2019
</metadata>
<g transform="translate(0.000000,635.000000) scale(0.100000,-0.100000)"
fill="#000000" stroke="none">
<path d="M3890 4786 c-144 -30 -284 -100 -327 -163 -43 -63 -150 -333 -283
-716 -42 -120 -55 -167 -44 -163 8 3 45 13 82 22 346 81 700 84 946 8 44 -14
158 -62 251 -106 147 -70 375 -168 388 -168 3 0 -49 161 -114 358 -66 196
-146 443 -180 547 -57 180 -62 192 -104 231 -50 47 -152 103 -245 134 -84 28
-274 36 -370 16z"/>
<path d="M3672 3800 c-120 -12 -264 -36 -372 -64 l-85 -21 -168 -504 c-92
-277 -166 -506 -164 -507 2 -2 54 5 116 16 477 82 955 119 1291 99 159 -9 194
-7 336 11 391 51 469 62 473 66 3 2 -38 132 -89 288 l-94 284 -95 38 c-53 20
-181 77 -286 126 -216 102 -302 133 -428 153 -118 19 -319 26 -435 15z"/>
<path d="M682 2885 c-33 -24 -22 -40 24 -37 53 4 156 -19 299 -68 241 -82 503
-141 790 -179 307 -40 418 -46 890 -46 514 0 436 -5 1370 106 1228 146 1611
176 1905 150 284 -25 747 -103 1175 -196 116 -26 234 -51 262 -58 51 -11 53
-10 83 18 37 35 42 31 -129 92 -267 95 -646 174 -1001 209 -221 22 -759 30
-987 15 -98 -7 -259 -23 -358 -36 -99 -13 -342 -45 -540 -70 -198 -25 -393
-50 -434 -55 -117 -16 -734 -79 -981 -100 -388 -34 -827 -26 -1160 21 -253 35
-415 71 -920 205 -167 44 -255 53 -288 29z"/>
<path d="M680 2776 c0 -19 -5 -26 -19 -26 -10 0 -33 -13 -49 -28 -39 -36 -50
-88 -28 -131 46 -88 162 -85 206 6 l15 31 140 -137 c77 -75 189 -180 248 -233
l109 -95 144 -32 c475 -106 885 -167 1292 -192 251 -15 458 -4 972 51 201 22
410 44 465 50 989 101 1748 72 2389 -91 l79 -20 76 47 c107 65 268 179 391
276 95 75 102 83 80 88 -17 4 -34 0 -52 -13 -55 -41 -148 -17 -171 43 -8 22
-20 30 -56 38 -41 9 -48 8 -67 -9 -48 -45 -134 -30 -171 29 -9 15 -18 29 -19
30 -1 2 -20 8 -41 12 -31 7 -41 6 -58 -10 -33 -31 -74 -42 -110 -30 -33 11
-68 43 -78 71 -5 16 -47 29 -91 29 -12 0 -27 -9 -34 -21 -7 -11 -28 -27 -47
-35 -59 -24 -116 0 -150 65 -11 22 -23 30 -50 33 -32 4 -38 1 -51 -24 -42 -80
-166 -73 -202 12 -16 38 -19 40 -64 40 -27 0 -51 1 -54 3 -4 1 -11 -14 -18
-33 -33 -102 -179 -102 -215 0 -5 16 -7 31 -4 34 4 3 -41 6 -98 6 l-105 0 4
-39 c3 -32 -2 -44 -28 -74 -19 -23 -44 -39 -65 -43 -65 -12 -135 46 -135 111
l0 28 -87 -7 c-130 -10 -128 -10 -128 -61 -1 -51 -29 -88 -80 -105 -60 -20
-131 26 -141 90 l-6 37 -47 -8 c-25 -4 -51 -8 -56 -8 -6 -1 -9 -20 -7 -46 4
-40 0 -49 -31 -80 -29 -29 -42 -35 -79 -35 -64 0 -102 33 -117 100 l-6 25 -95
-15 c-82 -13 -95 -18 -92 -33 6 -35 -20 -88 -52 -108 -50 -31 -102 -25 -142
15 -19 19 -34 44 -34 56 0 16 -5 20 -17 16 -10 -2 -69 -12 -130 -22 -108 -16
-113 -17 -113 -41 0 -49 -58 -103 -110 -103 -40 0 -88 31 -105 66 -11 24 -22
33 -33 30 -9 -2 -52 -7 -94 -11 -55 -5 -78 -11 -78 -20 0 -24 -50 -73 -84 -85
-47 -15 -99 7 -127 55 l-21 35 -98 0 -98 0 -12 -31 c-17 -40 -64 -69 -114 -69
-30 0 -45 7 -72 34 -19 19 -34 43 -34 55 0 12 -6 21 -14 21 -7 0 -27 3 -44 6
-27 6 -31 3 -42 -31 -15 -45 -60 -75 -114 -75 -30 0 -45 7 -72 34 -21 21 -34
44 -34 59 0 32 -2 33 -72 41 -54 7 -58 6 -58 -13 0 -11 -12 -35 -27 -51 -66
-74 -192 -29 -195 67 -1 23 -7 33 -22 37 -40 11 -54 6 -66 -24 -18 -43 -60
-70 -110 -70 -34 0 -48 6 -76 34 -27 27 -34 42 -34 74 0 38 -1 40 -37 45 -26
5 -39 3 -42 -6 -2 -6 -19 -27 -37 -44 -24 -25 -41 -33 -68 -33 -70 0 -119 45
-119 109 0 25 -6 30 -39 40 -32 10 -42 9 -60 -4 -51 -35 -130 -5 -143 54 -8
40 19 90 56 104 17 7 29 19 29 29 0 22 -138 67 -232 75 l-68 6 0 -27z"/>
<path d="M3820 2793 c-222 -13 -657 -67 -869 -107 -70 -13 -102 -29 -88 -42
15 -15 1437 132 1455 151 6 5 -402 4 -498 -2z"/>
<path d="M5542 2750 c-11 -18 -8 -25 26 -58 22 -20 41 -42 43 -48 2 -6 29 -14
59 -17 l55 -7 20 37 c17 32 42 53 79 66 5 1 6 13 2 25 -7 21 -12 22 -139 22
-122 0 -133 -2 -145 -20z"/>
<path d="M5893 2741 c-13 -20 -13 -26 -3 -29 25 -9 60 -51 66 -81 5 -22 13
-30 36 -35 44 -9 48 -8 48 10 0 21 63 84 84 84 19 0 21 20 4 42 -10 13 -40 19
-116 25 -102 9 -103 9 -119 -16z"/>
<path d="M5246 2744 c-136 -13 -155 -19 -156 -51 0 -7 6 -13 14 -13 8 0 28
-11 44 -25 29 -25 33 -25 133 -18 102 6 103 7 138 43 20 21 42 39 49 41 8 3
10 11 7 22 -8 20 -29 20 -229 1z"/>
<path d="M6201 2712 c-8 -15 -4 -23 19 -41 19 -14 34 -38 43 -69 13 -45 16
-47 55 -53 39 -5 42 -4 47 23 7 32 58 78 86 78 22 0 24 9 7 33 -9 11 -45 22
-108 32 -122 19 -137 19 -149 -3z"/>
<path d="M1032 2708 c-7 -7 -2 -18 16 -33 21 -18 27 -32 27 -64 0 -38 2 -42
30 -50 25 -7 35 -4 55 15 14 13 40 28 57 34 44 16 34 46 -21 60 -22 6 -66 19
-97 30 -39 12 -60 15 -67 8z"/>
<path d="M4815 2701 c-77 -9 -146 -20 -152 -24 -17 -11 -16 -37 1 -37 7 0 26
-10 41 -21 26 -21 31 -22 144 -11 113 10 118 12 153 45 28 26 34 37 26 50 -11
20 -27 20 -213 -2z"/>
<path d="M6521 2666 c-10 -12 -8 -17 9 -26 30 -16 60 -69 60 -106 0 -24 5 -33
23 -38 37 -10 47 -7 47 15 0 30 62 89 94 89 14 0 26 3 26 8 -1 24 -28 37 -111
53 -116 22 -133 23 -148 5z"/>
<path d="M4417 2656 c-66 -8 -91 -15 -98 -29 -11 -18 -4 -37 13 -37 5 0 22 -8
36 -19 24 -16 35 -17 88 -9 51 7 69 16 101 46 67 64 45 71 -140 48z"/>
<path d="M1302 2627 c-9 -11 -5 -18 18 -35 16 -12 33 -37 38 -55 7 -27 14 -33
48 -41 36 -7 44 -5 69 18 15 14 34 26 41 26 8 0 14 6 14 13 0 29 -29 46 -105
62 -44 9 -87 18 -96 21 -9 2 -21 -2 -27 -9z"/>
<path d="M4036 2611 c-111 -14 -131 -19 -143 -38 -13 -19 -12 -22 9 -28 13 -4
35 -18 50 -32 l26 -25 102 17 c96 16 105 20 142 57 32 32 37 42 27 54 -14 17
-44 16 -213 -5z"/>
<path d="M6831 2607 c-8 -11 -5 -19 14 -36 32 -27 48 -67 40 -102 -6 -25 -3
-29 27 -37 38 -10 48 -7 48 16 1 28 34 62 75 77 30 10 39 18 37 32 -5 25 -1
23 -99 44 -107 22 -127 23 -142 6z"/>
<path d="M1589 2564 c-12 -15 -12 -18 1 -22 13 -5 34 -25 83 -82 25 -30 73
-26 112 9 18 16 39 31 45 33 10 3 10 9 2 25 -9 16 -28 23 -94 33 -46 6 -95 14
-109 17 -16 3 -30 -1 -40 -13z"/>
<path d="M3585 2559 c-124 -15 -163 -23 -172 -36 -19 -24 -16 -32 12 -39 14
-3 38 -21 53 -39 l27 -33 126 20 c121 19 126 21 136 48 6 16 24 37 41 47 24
15 28 22 21 36 -12 21 -31 20 -244 -4z"/>
<path d="M7135 2540 c-10 -11 -13 -20 -7 -20 23 0 56 -64 57 -109 0 -40 3 -46
25 -52 18 -4 32 0 48 14 l22 20 0 -32 c0 -48 55 -101 104 -101 50 0 91 23 106
60 25 61 8 125 -42 151 -13 7 -27 18 -33 24 -8 10 -222 65 -252 65 -6 0 -18
-9 -28 -20z"/>
<path d="M1901 2522 c-14 -27 -14 -32 3 -32 13 0 45 -33 71 -73 6 -9 33 -17
71 -21 58 -6 61 -6 72 19 6 14 24 31 39 37 16 7 29 13 31 14 2 1 -4 13 -13 27
-14 22 -24 25 -118 31 -56 4 -112 10 -124 13 -15 3 -25 -1 -32 -15z"/>
<path d="M3220 2520 c-36 -4 -97 -8 -137 -9 -64 -1 -74 -4 -84 -23 -10 -18 -9
-23 2 -27 21 -7 79 -67 79 -83 0 -11 15 -12 78 -6 42 3 85 7 94 7 10 1 21 15
28 36 7 20 24 43 38 52 15 9 28 18 30 19 2 1 -1 12 -8 23 -11 22 -14 23 -120
11z"/>
<path d="M2246 2495 c-10 -26 -8 -31 19 -43 14 -7 35 -28 46 -47 19 -31 25
-35 64 -35 38 0 45 4 63 35 12 19 32 37 46 41 29 7 31 12 13 35 -9 12 -40 18
-128 23 -103 6 -117 5 -123 -9z"/>
<path d="M2566 2484 c-10 -25 -8 -28 23 -42 15 -7 36 -28 47 -47 l19 -35 95 0
96 0 17 35 c13 28 32 46 75 71 1 0 0 9 -4 18 -5 14 -28 16 -184 16 -153 0
-179 -2 -184 -16z"/>
<path d="M1385 2087 c109 -98 144 -122 240 -168 115 -54 252 -101 462 -158
142 -39 158 -41 418 -55 754 -43 1417 -46 1830 -7 767 71 1263 71 1631 0 l112
-22 113 39 c114 39 409 177 409 192 0 19 -356 90 -601 121 -251 32 -425 41
-769 41 -501 0 -751 -19 -1725 -127 -210 -24 -280 -27 -560 -27 -337 0 -439 7
-800 59 -232 34 -699 123 -790 152 -11 3 2 -14 30 -40z"/>
<path d="M4840 1714 c-113 -7 -313 -22 -445 -34 -435 -37 -690 -44 -1120 -31
-408 12 -732 27 -824 36 -100 10 -47 -4 165 -45 433 -82 540 -95 824 -93 140
0 444 8 675 17 1632 63 1681 65 1775 78 131 17 134 22 24 42 -253 45 -662 57
-1074 30z"/>
</g>
</svg>
