<?xml version="1.0" standalone="no"?>
<!DOCTYPE svg PUBLIC "-//W3C//DTD SVG 20010904//EN"
 "http://www.w3.org/TR/2001/REC-SVG-20010904/DTD/svg10.dtd">
<svg version="1.0" xmlns="http://www.w3.org/2000/svg"
 width="840.000000pt" height="584.000000pt" viewBox="0 0 840.000000 584.000000"
 preserveAspectRatio="xMidYMid meet">
<metadata>
Created by potrace 1.16, written by Peter Selinger 2001-2019
</metadata>
<g transform="translate(0.000000,584.000000) scale(0.100000,-0.100000)"
fill="#000000" stroke="none">
<path d="M3590 5429 c-263 -23 -485 -71 -715 -154 -576 -209 -1011 -482 -1230
-774 -109 -144 -162 -272 -285 -684 l-53 -178 -51 6 c-28 4 -58 8 -67 11 -13
3 -45 -101 -180 -593 l-166 -598 46 -9 c25 -5 48 -10 50 -12 5 -4 -71 -229
-144 -430 -185 -504 -372 -882 -511 -1034 -89 -97 -101 -153 -46 -203 27 -24
50 -29 342 -72 1035 -151 2270 -256 3500 -296 416 -13 1795 -7 2085 10 751 44
1246 96 1710 181 274 50 279 52 303 97 28 51 6 109 -103 287 -132 215 -346
747 -480 1196 -20 68 -39 129 -42 136 -4 10 5 14 35 14 23 0 43 4 47 9 5 9
-257 1111 -270 1131 -3 5 -24 10 -45 10 -21 0 -41 4 -44 8 -3 5 -24 113 -46
241 -23 129 -53 268 -66 310 -94 287 -343 567 -708 798 -138 87 -405 220 -589
291 -463 181 -822 256 -1452 302 -163 12 -687 11 -825 -1z m-170 -1753 l285
-11 -1 -30 c-2 -58 -15 -334 -39 -825 -14 -272 -28 -551 -31 -620 -4 -69 -9
-128 -13 -131 -6 -6 -992 29 -998 35 -2 2 5 163 14 359 l18 356 -30 3 c-27 3
-30 7 -33 43 -2 22 -1 69 3 103 l7 64 32 -6 32 -6 13 262 c6 145 14 301 18
347 l6 83 216 -7 c119 -4 344 -12 501 -19z"/>
<path d="M2857 3433 c-3 -15 -9 -107 -12 -203 -3 -96 -8 -187 -11 -202 -5 -27
-4 -28 36 -28 37 0 42 -3 56 -35 20 -50 17 -97 -9 -136 -20 -29 -27 -33 -58
-31 l-36 3 -7 -153 c-3 -84 -9 -192 -12 -240 l-7 -88 63 0 c35 0 184 -5 332
-11 148 -6 272 -9 274 -6 7 6 63 1121 57 1127 -2 2 -88 8 -191 11 -103 4 -251
10 -329 14 l-141 6 -5 -28z"/>
</g>
</svg>
