<?xml version="1.0" standalone="no"?>
<!DOCTYPE svg PUBLIC "-//W3C//DTD SVG 20010904//EN"
 "http://www.w3.org/TR/2001/REC-SVG-20010904/DTD/svg10.dtd">
<svg version="1.0" xmlns="http://www.w3.org/2000/svg"
 width="600.000000pt" height="620.000000pt" viewBox="0 0 600.000000 620.000000"
 preserveAspectRatio="xMidYMid meet">
<metadata>
Created by potrace 1.16, written by Peter Selinger 2001-2019
</metadata>
<g transform="translate(0.000000,620.000000) scale(0.100000,-0.100000)"
fill="#000000" stroke="none">
<path d="M3050 4649 c-212 -36 -435 -247 -655 -619 -76 -128 -245 -466 -245
-490 0 -78 197 -159 470 -194 215 -28 704 -36 920 -16 351 32 578 109 580 198
0 23 -128 287 -208 427 -161 282 -363 524 -517 617 -112 68 -237 96 -345 77z"/>
<path d="M4856 4134 c-139 -29 -363 -102 -642 -209 l-202 -77 75 -154 c71
-146 74 -156 63 -189 -12 -37 -52 -75 -109 -105 -46 -23 -203 -65 -296 -79
-256 -39 -689 -50 -995 -25 -89 7 -289 41 -380 64 -153 40 -250 110 -250 181
0 16 20 70 45 120 25 51 44 93 43 94 -10 8 -400 119 -473 135 -112 24 -368 27
-490 6 -189 -34 -302 -108 -336 -224 -33 -112 72 -221 301 -312 476 -190 1013
-282 1777 -305 569 -17 1219 88 1723 279 231 88 533 263 646 374 114 112 123
228 25 323 -57 55 -111 82 -215 109 -101 26 -163 24 -310 -6z m302 -200 c38
-4 52 -10 52 -21 0 -15 -27 -16 -271 -10 -148 4 -275 9 -280 13 -6 4 -7 10 0
17 10 12 390 13 499 1z m-16 -122 c8 -8 7 -13 -6 -18 -23 -9 -680 1 -695 10
-6 4 -8 12 -5 18 10 15 690 6 706 -10z m-3402 -58 c0 -11 -17 -14 -83 -14 -46
0 -173 -3 -281 -7 -192 -6 -198 -6 -194 13 3 18 17 19 273 24 149 3 273 4 278
2 4 -2 7 -10 7 -18z m3234 -45 c6 -6 6 -12 0 -17 -5 -5 -164 -6 -354 -3 -329
6 -345 7 -348 25 -4 19 5 19 344 12 194 -4 353 -11 358 -17z m-3201 -36 c4 -3
2 -12 -4 -20 -18 -20 -649 -19 -649 2 0 11 19 15 88 18 175 6 559 7 565 0z
m157 -96 c0 -19 -132 -27 -452 -27 -208 0 -258 3 -258 13 0 8 3 17 7 20 3 4
163 7 355 7 285 0 348 -2 348 -13z m140 -120 c0 -11 -38 -15 -172 -20 -284
-11 -408 -9 -408 6 0 8 3 17 7 20 3 4 134 7 290 7 230 0 283 -3 283 -13z"/>
<path d="M5315 4123 c144 -76 201 -216 139 -341 -63 -126 -358 -326 -674 -455
-332 -136 -798 -246 -1195 -282 -44 -5 -93 -10 -110 -12 -67 -9 -610 -11 -745
-3 -229 15 -291 20 -349 30 -29 6 -56 8 -60 6 -3 -2 -27 -1 -51 4 -25 4 -67
11 -95 14 -228 29 -539 95 -720 153 -237 76 -382 140 -471 207 -77 59 -106
103 -112 172 -11 131 107 251 295 299 l58 15 -75 -5 c-259 -19 -499 -148 -600
-323 -31 -54 -38 -60 -60 -55 -44 10 -60 23 -60 49 0 65 -64 124 -135 124
-104 0 -174 -110 -128 -200 23 -45 76 -80 120 -80 42 0 99 25 117 52 13 18 16
18 50 4 l36 -15 -16 -43 c-37 -105 -50 -273 -28 -355 5 -18 -1 -24 -41 -42
l-46 -20 -41 29 c-34 25 -51 30 -96 30 -69 0 -114 -27 -142 -86 -50 -101 8
-210 122 -229 30 -5 49 -1 85 17 60 30 85 64 91 126 4 44 8 51 38 66 19 9 40
16 47 16 7 0 28 -29 47 -63 50 -89 213 -250 330 -327 52 -34 97 -63 98 -65 2
-2 -8 -19 -23 -38 -26 -32 -30 -34 -60 -24 -93 28 -195 -52 -195 -154 0 -49
38 -106 85 -129 48 -23 83 -25 128 -6 34 14 87 68 87 89 0 6 -6 2 -14 -8 -27
-37 -71 12 -57 64 9 32 36 50 52 34 6 -6 15 -26 19 -45 l8 -33 1 30 c0 17 -6
48 -14 69 -13 36 -12 42 5 66 39 54 38 54 161 -4 162 -76 353 -144 557 -196
45 -11 50 -22 30 -65 -9 -19 -19 -25 -43 -25 -43 0 -96 -37 -118 -83 -44 -89
26 -197 128 -197 60 0 135 65 135 116 0 16 -1 16 -14 -1 -14 -19 -15 -19 -35
-1 -13 12 -21 31 -21 53 0 44 26 55 52 24 10 -13 18 -20 18 -17 0 13 -29 63
-43 75 -13 10 -13 17 0 51 9 22 19 40 23 40 4 0 61 -11 126 -25 141 -29 434
-71 554 -80 159 -11 160 -11 160 -53 0 -32 -5 -39 -33 -53 -68 -33 -97 -122
-62 -190 49 -94 210 -91 251 6 17 41 20 111 3 83 -15 -26 -44 -22 -68 8 -24
31 -26 47 -7 63 18 15 44 4 61 -28 8 -14 14 -21 15 -15 0 20 -38 61 -70 74
-26 11 -30 18 -30 49 l0 37 205 -4 c181 -4 491 10 552 24 17 5 22 0 28 -27 6
-28 4 -35 -19 -52 -56 -41 -73 -124 -36 -184 58 -95 213 -81 249 23 27 78 -16
166 -89 180 -30 6 -50 29 -50 56 0 9 50 21 168 40 194 32 395 80 573 137 70
23 131 41 137 41 5 0 21 -15 35 -34 26 -33 26 -35 10 -74 -39 -99 36 -206 143
-204 140 2 204 165 101 258 -17 16 -26 22 -19 14 32 -37 -14 -72 -67 -50 -53
21 -48 64 7 73 21 3 19 4 -10 6 -20 0 -48 -3 -62 -9 -21 -8 -28 -5 -46 17 -11
14 -20 29 -20 32 0 4 17 13 38 20 20 7 91 39 157 70 190 91 377 213 487 319
l47 46 48 -27 c47 -25 48 -26 53 -84 8 -93 55 -150 137 -168 66 -13 155 32
188 96 8 15 15 49 15 74 0 144 -152 223 -273 141 l-35 -24 -33 20 c-19 11 -36
22 -38 24 -2 2 14 25 36 51 83 101 156 224 198 336 10 26 20 47 22 47 2 0 24
-5 48 -11 38 -10 44 -15 49 -44 18 -92 116 -140 203 -98 96 45 98 199 4 248
-17 8 -40 15 -52 15 -22 0 -22 0 -3 -15 19 -15 18 -16 -9 -40 -50 -44 -114
-21 -72 25 29 32 4 23 -31 -11 -27 -26 -36 -29 -66 -24 -56 11 -57 13 -43 90
8 39 17 102 20 141 l7 72 39 6 c36 6 42 3 70 -28 111 -127 305 -2 233 150 -25
53 -74 77 -141 72 -48 -4 -61 -10 -85 -37 -16 -18 -31 -45 -35 -61 -4 -24 -12
-31 -40 -36 -19 -4 -36 -4 -38 -2 -3 2 -11 41 -19 85 -8 45 -26 108 -41 142
-33 72 -112 152 -180 181 -56 24 -72 26 -30 3z m153 -574 c3 -85 -29 -268 -54
-306 -12 -19 -18 -21 -41 -12 -75 28 -243 166 -243 200 0 16 167 132 255 178
69 36 80 28 83 -60z m-4742 2 c71 -48 174 -138 174 -153 0 -19 -82 -120 -152
-189 -75 -74 -133 -107 -156 -92 -42 26 -64 192 -39 290 23 88 73 183 96 183
10 0 45 -18 77 -39z m4390 -424 c57 -76 57 -94 -3 -131 -129 -78 -337 -194
-427 -237 -114 -55 -166 -70 -166 -47 0 29 341 517 404 580 l28 27 60 -67 c32
-37 79 -93 104 -125z m-3821 60 c17 -27 31 -96 46 -227 6 -52 19 -134 30 -182
31 -141 24 -198 -23 -198 -23 0 -599 291 -644 325 -39 30 -42 52 -13 89 39 50
255 140 469 195 98 26 116 26 135 -2z m3078 -167 c-3 -85 -167 -524 -200 -537
-43 -17 -241 125 -391 281 -57 59 -102 115 -102 125 0 15 15 25 57 41 58 22
233 71 338 96 33 8 96 23 140 33 44 11 98 19 120 18 l40 -2 -2 -55z m-2433 0
c87 -15 219 -29 431 -45 200 -15 249 -24 249 -47 0 -8 -36 -49 -81 -93 -122
-121 -267 -287 -334 -384 -37 -53 -68 -87 -81 -89 -58 -8 -293 203 -379 342
-58 94 -115 228 -115 274 0 50 39 64 160 57 52 -2 120 -9 150 -15z m1349 -84
c15 -8 41 -30 57 -48 47 -53 297 -476 291 -492 -8 -21 -85 -33 -307 -52 -107
-8 -226 -20 -265 -25 -105 -14 -445 -23 -484 -12 -57 15 -60 34 -18 87 76 91
305 321 402 402 107 89 219 154 267 154 16 0 42 -7 57 -14z"/>
<path d="M663 3447 c-40 -50 -43 -187 -5 -187 9 0 41 26 71 57 l55 56 -40 35
c-53 46 -70 54 -81 39z"/>
<path d="M4881 3086 c-30 -42 -64 -90 -75 -107 l-20 -32 28 7 c43 11 195 99
196 114 0 7 -17 31 -37 53 l-38 39 -54 -74z"/>
<path d="M998 2957 c-75 -26 -83 -31 -73 -47 9 -14 200 -110 219 -110 13 0 13
5 2 38 -8 20 -17 61 -21 90 -6 48 -9 52 -33 52 -15 0 -57 -11 -94 -23z"/>
<path d="M4140 2875 c-36 -7 -98 -24 -139 -37 l-74 -23 34 -39 c37 -43 145
-126 163 -126 13 0 74 150 83 204 3 20 4 36 2 35 -2 0 -33 -7 -69 -14z"/>
<path d="M1877 2844 c-11 -12 31 -105 68 -150 21 -25 55 -57 77 -72 l40 -26
22 29 c11 17 54 67 94 112 l73 82 -33 5 c-56 8 -263 26 -300 26 -19 0 -37 -3
-41 -6z"/>
<path d="M3072 2705 c-59 -45 -202 -189 -202 -205 0 -18 79 -20 242 -5 201 18
218 21 217 38 0 6 -28 57 -62 112 -58 94 -64 100 -98 103 -29 2 -47 -5 -97
-43z"/>
</g>
</svg>
