<?xml version="1.0" standalone="no"?>
<!DOCTYPE svg PUBLIC "-//W3C//DTD SVG 20010904//EN"
 "http://www.w3.org/TR/2001/REC-SVG-20010904/DTD/svg10.dtd">
<svg version="1.0" xmlns="http://www.w3.org/2000/svg"
 width="512.000000pt" height="266.000000pt" viewBox="0 0 512.000000 266.000000"
 preserveAspectRatio="xMidYMid meet">
<metadata>
Created by potrace 1.16, written by Peter Selinger 2001-2019
</metadata>
<g transform="translate(0.000000,266.000000) scale(0.100000,-0.100000)"
fill="#000000" stroke="none">
<path d="M2335 2630 c-66 -16 -183 -43 -260 -59 -316 -70 -366 -81 -491 -110
-72 -17 -140 -31 -150 -31 -11 0 -73 -13 -139 -29 -66 -16 -185 -44 -265 -61
-80 -18 -192 -43 -250 -55 -58 -13 -170 -38 -250 -55 -80 -18 -201 -45 -270
-60 -69 -16 -155 -35 -193 -41 -37 -7 -66 -17 -64 -22 2 -8 53 -28 227 -87 30
-10 100 -35 155 -55 55 -20 125 -45 155 -55 30 -10 100 -35 155 -55 55 -20
130 -46 167 -59 l67 -23 20 28 c82 110 462 209 1369 354 139 22 168 24 203 14
25 -8 35 -15 27 -19 -15 -8 -157 -35 -423 -81 -767 -131 -1053 -211 -1106
-311 -7 -14 -3 -19 23 -27 18 -5 78 -26 133 -46 206 -74 271 -97 292 -102 16
-4 24 -14 27 -37 13 -89 56 -496 56 -531 0 -110 78 -260 169 -326 82 -60 435
-151 689 -179 134 -15 451 -15 572 0 353 43 671 147 787 257 86 81 96 164 59
478 -14 121 -28 261 -32 311 l-7 91 29 6 c16 3 58 16 94 30 146 56 198 76 255
97 33 12 85 32 115 44 30 13 92 37 138 55 45 17 117 44 160 61 42 16 120 45
172 65 52 20 115 44 140 54 121 49 206 81 218 81 6 0 12 4 12 9 0 4 -48 18
-107 30 -60 11 -162 32 -228 46 -66 13 -138 27 -160 30 -22 3 -94 17 -160 30
-66 13 -191 37 -277 54 -87 17 -227 44 -310 61 -276 53 -471 91 -598 116 -69
13 -172 33 -230 44 -58 12 -132 26 -165 32 -33 6 -122 23 -197 39 -166 35
-200 35 -353 -1z"/>
</g>
</svg>
