<?xml version="1.0" standalone="no"?>
<!DOCTYPE svg PUBLIC "-//W3C//DTD SVG 20010904//EN"
 "http://www.w3.org/TR/2001/REC-SVG-20010904/DTD/svg10.dtd">
<svg version="1.0" xmlns="http://www.w3.org/2000/svg"
 width="432.000000pt" height="432.000000pt" viewBox="0 0 432.000000 432.000000"
 preserveAspectRatio="xMidYMid meet">
<metadata>
Created by potrace 1.16, written by Peter Selinger 2001-2019
</metadata>
<g transform="translate(0.000000,432.000000) scale(0.100000,-0.100000)"
fill="#000000" stroke="none">
<path d="M1863 4285 c-181 -56 -340 -268 -433 -579 l-37 -120 -69 -27 c-38
-15 -116 -46 -173 -68 -123 -49 -222 -112 -287 -184 -115 -128 -148 -208 -142
-337 6 -107 31 -164 110 -243 99 -100 261 -161 428 -160 83 0 108 5 198 36 56
20 102 32 102 27 0 -5 -19 -22 -43 -39 -101 -69 -156 -159 -157 -254 0 -86 27
-132 97 -164 63 -29 60 -5 24 -208 -50 -288 -76 -710 -68 -1143 5 -331 18
-448 60 -564 55 -152 111 -210 211 -216 51 -3 66 0 96 20 109 74 130 240 51
414 -104 233 -175 630 -236 1324 l-7 75 30 -41 c20 -27 40 -43 61 -47 17 -4
152 -2 300 4 149 5 421 10 605 12 288 2 337 4 342 17 3 8 8 50 11 93 3 42 9
77 13 77 15 0 123 -504 159 -740 41 -270 45 -524 11 -640 -36 -124 26 -266
142 -324 99 -50 223 -25 297 59 134 152 113 413 -70 898 -150 396 -363 817
-505 999 -24 31 -44 59 -44 62 0 4 25 36 56 73 31 36 71 96 88 132 28 60 31
75 31 161 -1 84 -4 101 -30 153 -62 124 -160 182 -339 199 l-116 12 -82 155
c-46 85 -99 172 -118 192 l-35 37 18 44 c78 182 74 368 -13 555 -46 98 -107
163 -200 215 -118 65 -238 84 -337 53z m239 -80 c115 -46 191 -116 239 -220
61 -131 77 -271 44 -395 -32 -122 -142 -307 -253 -422 -20 -21 -31 -38 -25
-38 20 0 127 78 201 146 40 36 74 65 75 63 13 -19 43 -70 87 -148 36 -66 50
-100 46 -117 -10 -37 -98 -126 -193 -193 -171 -122 -512 -272 -627 -275 -49
-1 -49 -1 -64 41 l-16 43 34 35 c19 19 31 35 27 35 -3 0 -41 -15 -84 -34 -128
-56 -267 -96 -332 -96 -32 0 -93 9 -137 20 -159 40 -262 113 -313 220 -55 117
-23 251 88 373 57 62 185 152 266 187 78 34 238 87 302 100 100 20 134 31 128
41 -4 5 -33 8 -66 8 -33 -1 -62 0 -64 3 -7 6 81 261 110 319 73 145 175 262
263 301 90 40 167 41 264 3z m769 -1274 c70 -27 124 -78 156 -149 21 -45 25
-65 21 -125 -6 -137 -92 -255 -270 -374 -54 -36 -97 -67 -95 -69 2 -2 45 10
96 27 51 17 95 28 99 24 9 -9 8 -290 -1 -337 -7 -32 -12 -38 -40 -42 -48 -8
-1022 -38 -1092 -34 l-60 3 -33 55 c-57 95 -92 211 -73 239 8 12 16 13 53 2
24 -7 51 -15 61 -17 11 -3 17 0 17 9 0 10 -19 19 -52 27 -142 34 -222 84 -234
146 -13 72 49 169 153 235 26 16 52 29 57 29 6 0 19 -26 29 -58 10 -31 20 -63
23 -69 4 -9 -6 -13 -35 -13 -23 0 -41 -4 -41 -9 0 -23 76 -72 143 -93 63 -20
92 -23 242 -23 147 1 185 4 280 27 223 52 514 182 604 268 29 28 51 58 51 69
0 19 -4 18 -46 -14 -72 -55 -83 -51 -128 58 -21 50 -56 125 -77 166 l-40 74
88 -5 c54 -4 110 -14 144 -27z"/>
</g>
</svg>
