<?xml version="1.0" standalone="no"?>
<!DOCTYPE svg PUBLIC "-//W3C//DTD SVG 20010904//EN"
 "http://www.w3.org/TR/2001/REC-SVG-20010904/DTD/svg10.dtd">
<svg version="1.0" xmlns="http://www.w3.org/2000/svg"
 width="728.000000pt" height="700.000000pt" viewBox="0 0 728.000000 700.000000"
 preserveAspectRatio="xMidYMid meet">

<g transform="translate(0.000000,700.000000) scale(0.100000,-0.100000)"
fill="#000000" stroke="none">
<path d="M3430 6990 c-384 -53 -745 -229 -1015 -495 -56 -55 -118 -119 -138
-142 l-37 -43 -127 26 c-221 44 -488 44 -711 -2 -42 -8 -130 -33 -196 -55
-594 -197 -1038 -702 -1166 -1329 -31 -150 -38 -406 -16 -560 60 -411 212
-713 504 -1008 225 -226 414 -335 801 -462 128 -42 137 -48 218 -133 117 -123
119 -135 192 -882 l46 -480 88 -53 c462 -278 1025 -466 1477 -492 174 -10 570
-4 695 11 388 45 838 191 1188 385 201 112 254 149 260 181 8 41 27 223 72
703 34 349 58 483 99 549 38 59 157 165 206 183 25 8 112 39 195 68 360 126
598 291 825 574 182 225 299 484 357 789 28 145 25 477 -5 622 -80 386 -284
742 -562 983 -276 238 -612 391 -954 433 -143 17 -408 6 -561 -25 l-119 -23
-136 137 c-74 76 -172 165 -218 199 -242 177 -537 298 -807 330 -120 15 -381
21 -455 11z m440 -564 c165 -27 373 -121 467 -212 47 -44 53 -55 53 -91 0 -61
-60 -123 -120 -123 -11 0 -80 30 -153 66 -72 37 -163 77 -201 90 -146 50 -340
55 -502 14 -45 -11 -147 -53 -234 -96 -175 -85 -194 -87 -255 -30 -28 27 -35
41 -35 70 0 46 13 72 58 112 71 64 263 154 414 194 92 24 377 27 508 6z
m-1810 -691 c71 -37 92 -127 44 -184 -29 -35 -67 -47 -179 -56 -124 -10 -254
-32 -325 -56 -270 -88 -471 -277 -573 -538 -36 -93 -52 -118 -89 -137 -43 -22
-81 -20 -117 5 -68 49 -76 105 -31 218 75 188 207 366 368 498 97 80 270 165
428 210 173 49 416 70 474 40z m387 -3015 c59 -36 64 -55 113 -460 17 -140 37
-309 45 -375 24 -195 28 -296 13 -325 -19 -34 -75 -70 -112 -70 -17 0 -45 9
-63 20 -38 23 -45 45 -67 215 -9 66 -21 147 -26 180 -36 220 -91 714 -83 747
18 75 111 110 180 68z m2511 0 c18 -11 40 -36 47 -54 16 -37 10 -106 -40 -496
-62 -479 -83 -609 -101 -637 -17 -27 -82 -48 -118 -39 -14 3 -41 19 -59 35
-32 29 -32 30 -31 123 2 108 81 773 114 960 21 113 103 160 188 108z m-1631
-250 c22 -13 35 -31 42 -57 9 -31 14 -525 11 -1035 l0 -77 -44 -31 c-59 -40
-92 -39 -150 5 l-46 36 1 472 c1 531 6 636 35 668 38 43 100 51 151 19z m772
-15 c35 -34 39 -115 40 -672 l1 -472 -46 -36 c-59 -45 -96 -46 -152 -4 l-42
31 0 551 c0 421 3 558 13 577 30 61 136 75 186 25z"/>
<path d="M1820 1067 c0 -72 31 -296 50 -358 71 -236 418 -458 938 -599 377
-102 731 -129 1191 -89 310 26 699 138 974 278 139 71 233 136 318 221 78 77
112 138 133 241 17 87 42 326 34 335 -3 3 -77 -31 -164 -74 -452 -226 -848
-344 -1319 -393 -148 -15 -509 -15 -670 1 -458 44 -865 164 -1306 386 -93 46
-171 84 -174 84 -3 0 -5 -15 -5 -33z"/>
</g>
</svg>
