<svg id="Layer_5" enable-background="new 0 0 64 64" height="512" viewBox="0 0 64 64" width="512" xmlns="http://www.w3.org/2000/svg"><g><g><path d="m53.18 39.65c.52 2.36 2.12 4.37 4.39 5.38l4.43 1.97v1s-11 4-30 4-30-4-30-4v-1l4.43-1.97c1.39-.61 2.53-1.61 3.33-2.84.79-1.22 1.24-2.67 1.24-4.19v-1c0 2.76 7.19 5 21 5 8.43 0 14.39-.83 17.76-2.11.4.07.82.11 1.24.11.76 0 1.49-.12 2.18-.35z" fill="#cf9e76"/><path d="m40.05 21.37c.15 1.37.58 2.72 1.3 3.95.86 1.48 2.07 2.71 3.54 3.63-.59 1.42-.89 2.89-.89 4.05 0 .77.12 1.51.36 2.2-3.24.51-7.37.8-12.36.8-12.35 0-19.41-1.79-20.77-4.15v-.01c.69-4.53 2.82-8.59 5.92-11.69.26-.26.53-.51.8-.76l.02.02c2.14 1.51 7.6 2.59 14.03 2.59 2.97 0 5.73-.23 8.05-.63z" fill="#cf9e76"/><path d="m44.36 35.2c.79 2.4 2.86 4.23 5.4 4.69-3.37 1.28-9.33 2.11-17.76 2.11-13.81 0-21-2.24-21-5v-2c0-1.07.08-2.12.23-3.15 1.36 2.36 8.42 4.15 20.77 4.15 4.99 0 9.12-.29 12.36-.8z" fill="#b27946"/><path d="m41 16.02-.2.46c-.67 1.57-.92 3.25-.75 4.89-2.32.4-5.08.63-8.05.63-6.43 0-11.89-1.08-14.03-2.59l-.02-.02c3.72-3.35 8.65-5.39 14.05-5.39 3.22 0 6.27.72 9 2.02z" fill="#b27946"/><g fill="#a0d468"><path d="m41 16.02.43-1.02 1.65.27c1.38.22 2.68.69 3.83 1.38-.59 1.29-.91 2.71-.91 4.18 0 1.67.41 3.29 1.18 4.73-1 .91-1.76 2.13-2.29 3.39-1.47-.92-2.68-2.15-3.54-3.63-.72-1.23-1.15-2.58-1.3-3.95-.17-1.64.08-3.32.75-4.89z"/><path d="m61.2 16.48c1.23 2.87 1.03 6.13-.55 8.84-.86 1.48-2.07 2.71-3.54 3.63-.53-1.26-1.29-2.48-2.29-3.39.77-1.44 1.18-3.06 1.18-4.73 0-1.47-.32-2.89-.91-4.18 1.15-.69 2.45-1.16 3.83-1.38l1.65-.27z"/><path d="m55.09 16.65c.59 1.29.91 2.71.91 4.18 0 1.67-.41 3.29-1.18 4.73-1.02-.95-2.3-1.56-3.82-1.56s-2.8.61-3.82 1.56c-.77-1.44-1.18-3.06-1.18-4.73 0-1.47.32-2.89.91-4.18.65-1.41 1.62-2.68 2.86-3.67l1.23-.98 1.23.98c1.19.96 2.13 2.16 2.78 3.5.03.06.05.11.08.17z"/></g><path d="m57.11 28.95c.59 1.42.89 2.89.89 4.05 0 3.1-2.02 5.73-4.82 6.65-.69.23-1.42.35-2.18.35-.42 0-.84-.04-1.24-.11-2.54-.46-4.61-2.29-5.4-4.69-.24-.69-.36-1.43-.36-2.2 0-1.16.3-2.63.89-4.05.53-1.26 1.29-2.48 2.29-3.39 1.02-.95 2.3-1.56 3.82-1.56s2.8.61 3.82 1.56c1 .91 1.76 2.13 2.29 3.39z" fill="#fcd770"/><path d="m51 28c1.66 0 3 3.34 3 5s-1.34 3-3 3-3-1.34-3-3 1.34-5 3-5z" fill="#ffeaa7"/></g><g><path d="m51 27c-2.442 0-4 3.94-4 6 0 2.206 1.794 4 4 4s4-1.794 4-4c0-2.06-1.558-6-4-6zm0 8c-1.103 0-2-.897-2-2 0-1.495 1.252-4 2-4s2 2.505 2 4c0 1.103-.897 2-2 2z"/><path d="m57.976 44.117c-1.682-.747-2.977-2.165-3.588-3.88 2.72-1.279 4.612-4.038 4.612-7.237 0-1.022-.225-2.342-.689-3.685 1.304-.94 2.411-2.124 3.205-3.49 1.749-3.007 1.969-6.558.603-9.743l-.941-2.194-2.418.391c-1.141.185-2.231.528-3.257 1.017-.678-1.169-1.563-2.224-2.652-3.096l-1.851-1.481-1.851 1.48c-1.089.872-1.974 1.927-2.652 3.096-1.026-.489-2.117-.832-3.258-1.017l-2.417-.391-.347.808c-2.682-1.122-5.528-1.695-8.475-1.695-12.131 0-22 9.869-22 22v3c0 2.643-1.561 5.043-3.976 6.117l-5.024 2.233v2.35l.658.24c.456.165 11.384 4.06 30.342 4.06s29.886-3.895 30.342-4.06l.658-.24v-2.35zm-6.976-5.117c-3.309 0-6-2.691-6-6 0-2.792 2.061-8 6-8s6 5.208 6 8c0 3.309-2.691 6-6 6zm8.079-22.747.876-.142.326.759c1.114 2.597.935 5.494-.493 7.948-.582 1.002-1.363 1.894-2.287 2.626-.405-.762-.895-1.487-1.476-2.123.628-1.411.975-2.942.975-4.487 0-1.292-.225-2.549-.646-3.729.857-.409 1.77-.697 2.725-.852zm-8.68-2.492.601-.48.601.48c2.16 1.729 3.399 4.306 3.399 7.073 0 1.075-.2 2.144-.573 3.151-.975-.607-2.11-.985-3.427-.985s-2.452.378-3.427.985c-.373-1.007-.573-2.076-.573-3.151 0-2.767 1.239-5.344 3.399-7.073zm-8.354 2.351.875.142c.956.155 1.869.442 2.726.852-.421 1.179-.646 2.436-.646 3.728 0 1.545.347 3.076.974 4.488-.581.636-1.071 1.362-1.476 2.124-.924-.732-1.705-1.624-2.287-2.626-1.428-2.454-1.607-5.351-.493-7.948zm-2.332.433c-.488 1.292-.72 2.632-.701 3.969-2.142.313-4.537.486-7.012.486-5.656 0-9.967-.838-12.244-1.779 3.388-2.635 7.63-4.221 12.244-4.221 2.683 0 5.273.522 7.713 1.545zm-21.611 4.104c2.689 1.441 7.973 2.351 13.898 2.351 2.541 0 5.005-.177 7.223-.496.235 1.147.648 2.268 1.261 3.32.794 1.367 1.901 2.551 3.205 3.491-.464 1.343-.689 2.663-.689 3.685 0 .467.049.922.126 1.368-3.136.418-6.869.632-11.126.632-13.168 0-18.439-2.008-19.692-3.377.731-4.271 2.808-8.081 5.794-10.974zm-6.102 14.351c0-.362.035-.716.054-1.074 3.243 1.973 10.237 3.074 19.946 3.074 4.495 0 8.428-.236 11.723-.697.644 1.413 1.685 2.605 2.983 3.435-3.598.819-8.674 1.262-14.706 1.262-15.111 0-20-2.695-20-4zm20 16c-15.136 0-25.229-2.591-28.503-3.571l3.34-1.485c2.578-1.146 4.384-3.462 4.954-6.154 4.244 2.841 14.972 3.21 20.209 3.21 7.926 0 14.09-.723 17.867-2.09.371.053.748.09 1.133.09.507 0 1.002-.053 1.483-.143.785 2.249 2.479 4.11 4.68 5.088l3.342 1.485c-3.269.98-13.341 3.57-28.505 3.57z"/></g></g></svg>