<?xml version="1.0" standalone="no"?>
<!DOCTYPE svg PUBLIC "-//W3C//DTD SVG 20010904//EN"
 "http://www.w3.org/TR/2001/REC-SVG-20010904/DTD/svg10.dtd">
<svg version="1.0" xmlns="http://www.w3.org/2000/svg"
 width="1280.000000pt" height="978.000000pt" viewBox="0 0 1280.000000 978.000000"
 preserveAspectRatio="xMidYMid meet">
<g transform="translate(0.000000,978.000000) scale(0.100000,-0.100000)"
fill="#000000" stroke="none">
<path d="M7939 9775 c-9 -8 -309 -53 -424 -64 -122 -11 -193 -31 -550 -156
-280 -98 -382 -144 -657 -295 -314 -173 -348 -193 -436 -260 -186 -140 -529
-552 -725 -870 -25 -41 -93 -174 -151 -295 -92 -194 -112 -245 -165 -430 -33
-115 -80 -261 -106 -324 -25 -63 -50 -143 -55 -178 -5 -36 -18 -76 -30 -93
-12 -17 -36 -90 -55 -168 -19 -76 -50 -176 -70 -223 -79 -181 -180 -503 -230
-733 -31 -137 -91 -315 -171 -507 -31 -74 -71 -170 -89 -214 -19 -44 -48 -145
-65 -225 -58 -262 -97 -372 -263 -740 -36 -80 -68 -162 -72 -182 -4 -21 -23
-64 -42 -95 -20 -32 -62 -112 -94 -179 -32 -67 -84 -157 -115 -200 -31 -43
-68 -104 -81 -134 -14 -30 -49 -87 -79 -126 -29 -39 -63 -93 -75 -120 -29 -65
-61 -105 -203 -253 -65 -69 -142 -159 -171 -200 -32 -45 -71 -87 -97 -104 -58
-38 -171 -72 -238 -72 -50 0 -62 5 -130 51 -41 29 -92 57 -113 64 -51 16 -64
40 -97 172 -36 148 -62 214 -112 289 -54 80 -206 236 -239 244 -40 10 -136
-32 -183 -79 -32 -31 -56 -74 -101 -180 -33 -76 -65 -141 -73 -143 -7 -3 -62
14 -120 37 -171 69 -228 65 -326 -21 -57 -51 -100 -119 -131 -209 -33 -98 -60
-130 -147 -175 -116 -60 -190 -117 -236 -183 -53 -75 -97 -114 -174 -153 -84
-42 -114 -66 -152 -119 -44 -60 -62 -111 -81 -222 -19 -111 -9 -157 49 -237
20 -27 36 -59 36 -71 0 -12 -13 -46 -29 -74 -16 -28 -39 -84 -51 -123 -26 -82
-23 -121 12 -192 27 -53 87 -94 233 -156 143 -60 200 -92 228 -125 29 -34 34
-53 43 -195 3 -54 12 -123 20 -153 34 -131 113 -243 186 -262 23 -7 133 -10
281 -8 l242 3 95 -42 c97 -42 199 -73 242 -73 13 0 48 9 78 20 96 35 134 75
149 155 19 103 77 115 307 68 203 -42 226 -30 269 142 39 157 39 157 190 175
56 7 99 17 115 29 39 27 63 111 64 216 1 82 -1 93 -25 127 -17 24 -29 57 -34
93 -8 68 -30 96 -134 169 -90 63 -121 98 -121 135 0 47 73 127 142 155 68 28
250 52 583 76 207 15 333 34 520 80 88 21 196 41 239 45 106 8 250 38 394 80
206 62 315 92 404 113 148 35 279 111 343 201 25 35 47 53 80 65 30 12 82 53
159 125 63 60 132 116 153 125 21 10 49 23 63 29 33 15 233 215 246 247 6 14
18 41 26 60 9 19 38 61 66 92 28 32 54 68 57 80 4 13 20 37 36 53 40 43 65
105 88 225 29 145 46 201 91 300 21 47 42 102 46 123 8 47 41 72 81 62 16 -3
66 -29 113 -56 104 -60 215 -100 296 -106 57 -5 63 -4 77 18 9 13 18 47 22 74
10 78 23 111 65 161 45 54 66 123 76 244 7 94 23 144 51 158 10 5 42 15 70 22
97 22 147 74 173 178 8 29 30 63 71 109 33 37 74 92 89 124 16 31 36 59 46 63
9 3 64 3 123 0 96 -6 112 -5 156 15 65 29 91 54 126 123 16 31 34 60 41 65 7
4 63 11 123 14 156 8 192 32 210 140 3 19 28 70 55 114 27 43 59 106 70 140
23 70 55 104 117 128 47 19 186 37 278 37 81 0 128 15 182 56 60 46 93 45 196
-8 75 -39 89 -42 157 -43 92 0 131 20 177 90 18 26 38 52 44 56 20 12 49 -9
49 -36 0 -58 209 -253 309 -288 28 -10 86 -42 129 -72 127 -90 162 -105 280
-120 101 -13 108 -16 132 -45 56 -71 104 -108 217 -169 162 -88 236 -137 317
-210 l68 -62 99 7 c113 8 110 9 171 -74 47 -63 117 -111 210 -142 53 -18 83
-21 150 -19 79 4 88 7 148 46 36 23 97 51 135 63 102 32 150 63 181 116 35 59
42 152 20 247 -23 99 -21 143 9 172 29 30 42 30 123 5 80 -25 128 -25 169 0
78 47 82 141 14 302 -44 104 -49 133 -27 164 13 17 24 19 108 15 162 -8 176
-6 215 25 19 16 49 48 66 71 l30 43 -28 52 c-91 170 -213 300 -340 364 -87 44
-106 70 -80 111 22 33 68 59 129 74 109 26 146 55 146 114 0 99 -113 151 -313
142 -56 -2 -128 -10 -159 -17 -73 -18 -87 -10 -153 77 -27 37 -75 94 -105 128
-31 33 -77 97 -102 140 -63 109 -80 123 -177 145 -127 28 -156 51 -251 192
-72 108 -112 153 -330 368 -183 182 -260 264 -295 320 -55 87 -298 332 -634
640 -241 220 -348 305 -406 321 -29 8 -57 29 -105 81 -40 44 -107 98 -175 143
-60 40 -148 101 -195 135 -47 34 -150 93 -230 132 -80 38 -168 87 -196 108
-91 68 -221 135 -554 285 -180 82 -242 105 -275 105 -17 0 -34 -2 -36 -5z
m941 -2092 c49 -50 79 -133 90 -254 17 -177 30 -185 313 -198 222 -10 226 -11
453 -126 236 -120 340 -131 418 -44 19 21 41 50 49 66 21 39 52 65 74 61 33
-6 43 -47 43 -186 0 -206 18 -250 105 -259 66 -8 129 20 200 87 58 56 93 80
114 80 20 0 35 -47 41 -133 5 -70 11 -92 27 -109 19 -18 25 -19 57 -8 19 6 73
43 118 82 93 79 136 102 156 85 23 -19 39 -60 61 -158 31 -135 64 -165 127
-117 16 12 79 70 140 129 61 60 123 111 138 115 34 8 68 -14 90 -59 25 -53 20
-101 -19 -187 -51 -114 -47 -140 26 -140 42 0 60 -33 49 -90 -5 -25 -9 -59
-10 -77 0 -29 5 -34 50 -54 33 -14 56 -32 69 -55 23 -38 74 -66 223 -122 184
-70 384 -180 456 -251 68 -69 25 -115 -109 -114 -61 1 -100 9 -198 42 -248 84
-256 58 -71 -249 119 -197 141 -249 120 -275 -22 -26 -52 -17 -210 60 -84 41
-164 75 -176 75 -12 0 -30 -8 -39 -17 -25 -25 -15 -79 49 -279 30 -94 58 -194
62 -223 12 -92 -33 -107 -116 -38 -28 23 -75 61 -103 84 -33 27 -62 43 -79 43
-46 0 -58 -32 -68 -187 -10 -163 -19 -193 -55 -193 -42 0 -88 24 -127 68 -72
80 -96 178 -80 327 6 53 8 103 5 111 -3 9 -19 14 -43 14 -31 0 -43 -6 -70 -37
-18 -21 -46 -63 -64 -93 -34 -59 -84 -100 -123 -100 -15 0 -39 14 -58 33 -45
45 -59 114 -46 231 11 98 4 130 -33 147 -40 19 -77 1 -142 -66 -67 -70 -107
-86 -167 -66 -41 14 -91 64 -111 111 -8 19 -17 62 -21 95 -4 33 -11 75 -17 93
-11 37 -63 102 -81 102 -6 0 -50 -40 -98 -90 -97 -100 -122 -110 -158 -64 -26
33 -26 67 -1 123 33 71 27 106 -24 157 -68 69 -106 60 -165 -39 -28 -46 -57
-67 -95 -67 -125 0 -272 244 -316 525 -12 75 -30 105 -65 105 -48 0 -84 -74
-141 -293 -24 -95 -52 -183 -63 -197 -11 -16 -30 -26 -50 -28 -47 -5 -122 76
-191 208 -62 119 -94 160 -121 160 -31 0 -48 -41 -64 -160 -14 -101 -33 -160
-51 -160 -20 0 -49 31 -103 110 -103 150 -147 149 -170 -5 -6 -38 -13 -84 -16
-102 -8 -44 -50 -93 -82 -93 -31 0 -54 12 -120 66 -52 43 -95 56 -109 33 -3
-6 -10 -66 -14 -134 -11 -196 -32 -209 -194 -125 -53 28 -103 50 -110 50 -40
0 -16 -107 42 -192 16 -24 39 -62 51 -85 76 -151 -65 -128 -345 57 -112 74
-134 84 -180 78 -25 -3 -29 -8 -32 -36 -4 -44 15 -92 84 -203 31 -50 52 -94
48 -99 -5 -4 -56 -4 -114 1 -161 12 -274 11 -294 -4 -9 -7 -20 -31 -23 -54 -4
-34 1 -56 32 -121 20 -44 35 -88 33 -98 -5 -27 -39 -28 -98 -3 -58 25 -104 29
-123 10 -21 -21 -14 -129 13 -204 25 -67 25 -69 6 -83 -11 -8 -33 -14 -48 -14
-51 0 -85 -26 -115 -87 -27 -57 -28 -61 -28 -233 0 -96 -4 -181 -8 -187 -18
-28 -47 -11 -104 60 -52 63 -64 72 -96 75 -32 3 -39 -1 -57 -30 -28 -46 -25
-79 16 -169 19 -44 32 -84 29 -89 -21 -34 -125 39 -181 126 -66 103 -174 99
-174 -6 0 -55 -18 -90 -47 -90 -21 0 -57 33 -126 115 l-25 30 -19 -34 c-45
-81 -90 -137 -126 -154 -35 -18 -39 -18 -62 -3 -50 33 -58 68 -52 206 4 69 3
130 -1 136 -4 6 -35 25 -68 42 -65 33 -104 72 -104 104 0 35 32 81 126 185 52
56 94 104 94 107 0 18 -17 39 -42 52 -21 11 -64 16 -143 17 -105 2 -115 4
-139 26 -36 34 -33 73 9 146 66 112 78 144 72 194 -5 46 -16 59 -104 128 l-28
21 24 45 c23 42 24 49 12 89 -7 23 -43 90 -79 147 -54 85 -66 112 -70 155 -3
43 -1 54 17 70 40 36 111 33 277 -13 146 -40 206 -49 231 -33 21 13 43 80 43
130 0 61 -17 85 -169 245 -62 65 -116 130 -122 143 -10 29 1 59 35 87 43 36
63 38 153 17 46 -11 98 -20 113 -20 53 0 140 100 140 160 0 40 40 45 125 17
59 -20 82 -24 102 -16 15 5 81 65 147 133 70 71 152 143 195 171 145 95 345
139 457 101 64 -21 116 -20 145 3 21 17 25 30 29 112 5 89 6 94 32 108 25 15
31 13 111 -28 87 -45 144 -55 173 -30 18 15 16 65 -10 204 -21 109 -21 228 -1
245 37 30 174 -45 307 -168 91 -83 133 -112 163 -112 9 0 33 19 53 41 44 49
85 69 145 69 24 0 48 5 55 12 7 7 12 44 12 94 0 107 8 142 36 161 37 24 72 4
188 -106 122 -116 159 -143 189 -139 21 3 22 7 28 153 7 160 24 234 75 322 23
40 58 73 77 73 5 0 26 -17 47 -37z m-7141 -4768 c50 -25 140 -136 184 -224
l42 -85 -1 -135 c-1 -82 -10 -191 -23 -274 -11 -76 -21 -160 -21 -186 0 -62
25 -97 62 -88 27 7 97 79 170 174 30 40 61 68 84 78 54 22 64 20 64 -17 0 -34
-31 -93 -95 -181 -19 -27 -40 -67 -47 -88 -10 -35 -9 -43 8 -66 11 -14 38 -31
61 -38 23 -7 56 -23 73 -35 45 -32 90 -106 90 -147 0 -29 -5 -36 -33 -48 -18
-7 -73 -21 -121 -29 -97 -17 -116 -27 -116 -61 0 -34 36 -72 131 -140 128 -91
187 -143 251 -224 97 -121 136 -217 117 -286 -10 -36 -49 -65 -86 -65 -31 0
-115 56 -195 129 -94 85 -157 124 -195 119 -45 -5 -42 -49 7 -142 53 -100 80
-206 80 -313 0 -107 -16 -148 -67 -169 -79 -33 -129 23 -214 239 -27 71 -61
151 -74 178 -25 49 -65 79 -105 79 -38 0 -41 -36 -30 -290 14 -283 10 -304
-57 -367 -89 -84 -177 -104 -244 -58 -42 27 -124 133 -147 185 -13 32 -13 40
7 101 39 123 26 169 -49 169 -68 0 -112 -68 -125 -195 -8 -76 -21 -109 -57
-141 -93 -86 -277 -67 -340 34 -21 34 -23 53 -31 270 -5 129 -14 252 -21 274
-19 67 -42 77 -197 87 -122 7 -142 11 -195 38 -74 37 -124 98 -124 151 0 75
48 119 174 158 65 20 119 64 114 91 -2 12 -17 20 -43 25 -102 17 -206 72 -232
121 -23 45 -21 156 6 231 25 72 63 122 108 144 32 15 37 15 82 -1 26 -9 79
-35 117 -56 38 -22 90 -46 115 -52 41 -11 50 -10 73 4 45 30 28 90 -51 177
-89 99 -99 126 -67 176 36 54 54 57 318 49 234 -7 242 -7 266 13 l25 21 -23
43 c-12 24 -49 75 -82 113 -95 111 -107 152 -70 226 39 75 121 99 199 59 58
-29 121 -106 173 -212 50 -103 100 -168 127 -168 50 0 66 62 80 305 11 190 28
264 71 307 32 31 58 35 99 13z"/>
</g>
</svg>
