<?xml version="1.0" standalone="no"?>
<!DOCTYPE svg PUBLIC "-//W3C//DTD SVG 20010904//EN"
 "http://www.w3.org/TR/2001/REC-SVG-20010904/DTD/svg10.dtd">
<svg version="1.0" xmlns="http://www.w3.org/2000/svg"
 width="800.000000pt" height="800.000000pt" viewBox="0 0 800.000000 800.000000"
 preserveAspectRatio="xMidYMid meet">
<metadata>
Created by potrace 1.16, written by Peter Selinger 2001-2019
</metadata>
<g transform="translate(0.000000,800.000000) scale(0.100000,-0.100000)"
fill="#000000" stroke="none">
<path d="M4608 4783 c18 -2 44 -14 58 -26 13 -11 30 -22 37 -23 6 -1 58 -13
114 -27 56 -13 106 -21 112 -18 14 9 8 41 -10 51 -34 19 -142 39 -239 43 -58
3 -90 3 -72 0z"/>
<path d="M4205 4771 c-16 -3 -29 -11 -28 -16 3 -11 -52 -16 -187 -18 -47 0
-77 -3 -67 -5 9 -2 17 -7 17 -12 0 -16 -35 -16 -47 0 -9 11 -12 12 -13 2 0 -9
-7 -11 -19 -7 -11 3 -22 1 -25 -4 -4 -6 -13 -8 -21 -5 -21 8 -41 -6 -24 -17
11 -7 10 -9 -3 -9 -9 0 -20 5 -23 10 -3 6 -11 10 -16 10 -6 0 -7 -6 -3 -12 6
-10 4 -10 -8 0 -13 10 -17 10 -21 0 -5 -11 -7 -11 -15 0 -7 10 -11 10 -21 -2
-7 -8 -19 -12 -26 -10 -7 3 -26 -3 -41 -13 -16 -10 -25 -13 -21 -7 7 12 -15
26 -41 28 -7 1 -16 6 -20 13 -7 10 -78 32 -107 33 -5 0 9 -12 33 -26 23 -14
42 -29 42 -35 0 -13 -9 -11 -38 9 -34 23 -82 44 -82 35 0 -16 77 -72 108 -78
19 -3 31 -9 28 -12 -3 -3 -1 -14 5 -24 10 -20 -4 -28 -16 -8 -12 19 -49 26
-83 17 -27 -8 -36 -6 -50 11 -23 27 -94 63 -104 53 -5 -5 1 -32 13 -61 19 -45
25 -52 48 -50 43 3 59 0 64 -15 4 -11 1 -13 -11 -9 -14 6 -15 4 -5 -8 9 -11 7
-14 -13 -15 -13 -1 -24 2 -24 7 0 5 -7 9 -16 9 -10 0 -14 -6 -10 -15 3 -8 1
-15 -4 -15 -6 0 -10 6 -10 14 0 9 -8 12 -25 8 -14 -2 -23 -8 -20 -12 6 -9 -31
-22 -65 -22 -14 0 -28 -5 -33 -12 -5 -8 -11 -6 -18 7 -6 10 -22 17 -39 17 -17
0 -30 4 -30 9 0 4 43 13 97 19 53 6 101 16 107 23 8 9 7 10 -5 6 -13 -4 -19 4
-28 37 -19 78 -91 153 -138 144 -14 -2 -9 -9 20 -27 21 -13 36 -25 34 -28 -3
-2 -34 6 -69 18 -37 13 -72 20 -83 16 -16 -7 -15 -10 13 -31 35 -25 82 -76
114 -121 l21 -30 -32 33 c-18 18 -37 29 -43 26 -6 -4 -8 -2 -5 3 7 11 -7 26
-35 36 -12 4 -15 2 -11 -9 3 -7 9 -14 13 -14 4 0 10 -9 13 -19 3 -14 1 -18 -9
-14 -8 3 -14 9 -14 14 0 5 -17 27 -39 49 -40 41 -71 49 -128 34 -27 -7 -31
-24 -6 -24 19 0 83 -41 83 -53 0 -5 -4 -5 -10 -2 -5 3 -16 3 -22 -2 -7 -4 -26
-6 -42 -4 -19 2 -26 -1 -21 -8 3 -6 12 -8 18 -5 7 4 9 4 5 -1 -4 -4 0 -14 10
-22 16 -12 15 -13 -3 -6 -11 3 -33 17 -48 30 -29 24 -110 33 -122 14 -3 -5 17
-24 44 -42 48 -30 72 -59 50 -59 -5 0 -12 6 -15 14 -8 21 -78 46 -127 46 -57
-1 -107 -28 -136 -73 -13 -20 -30 -37 -38 -37 -7 0 -13 -5 -13 -12 0 -6 -3 -9
-6 -5 -20 19 -91 -119 -119 -233 -2 -8 -8 -30 -14 -48 -5 -18 -7 -40 -4 -49 4
-10 2 -14 -4 -10 -12 8 -47 -78 -38 -93 3 -5 1 -10 -5 -10 -12 0 -19 -17 -62
-139 -16 -47 -32 -90 -36 -95 -24 -33 -76 -192 -67 -206 3 -5 1 -10 -5 -10 -7
0 -10 -7 -6 -15 3 -8 2 -15 -3 -15 -15 0 -38 -72 -65 -200 -36 -176 -42 -235
-26 -225 9 5 11 4 6 -4 -4 -6 -12 -9 -17 -5 -6 3 -9 -10 -8 -33 2 -41 -18
-247 -27 -275 -2 -9 -9 -40 -14 -70 -25 -145 -41 -235 -46 -249 -3 -12 -20
-16 -66 -18 -34 -1 -65 -4 -68 -6 -3 -2 -73 -9 -155 -15 -81 -7 -158 -16 -169
-20 -12 -5 -15 -9 -8 -9 6 -1 12 -6 12 -11 0 -7 -6 -7 -19 0 -25 13 -74 13
-66 0 4 -6 -5 -7 -24 -4 -40 8 -110 -4 -91 -16 8 -5 -2 -7 -26 -3 -22 3 -60
-1 -84 -8 -25 -6 -52 -13 -60 -14 -84 -10 -111 -17 -106 -31 4 -11 2 -12 -14
-1 -16 9 -29 8 -69 -6 -27 -9 -65 -17 -84 -17 -20 0 -39 -4 -42 -10 -3 -5 -20
-10 -36 -10 -27 0 -98 -14 -139 -26 -11 -4 -12 -7 -1 -13 8 -5 3 -8 -16 -9
-50 0 -147 -14 -188 -27 -35 -11 -37 -13 -13 -14 30 -1 112 -31 104 -38 -2 -2
-25 3 -50 11 -51 17 -104 20 -124 7 -9 -5 -2 -8 20 -9 18 0 34 -5 36 -11 2 -5
11 -8 20 -5 15 5 15 4 0 -9 -10 -8 -15 -16 -13 -19 6 -6 -105 11 -115 17 -4 3
-13 -2 -20 -10 -10 -13 -9 -15 11 -15 13 -1 38 -7 54 -15 30 -14 30 -14 -15
-9 -25 3 -51 8 -59 10 -14 4 -51 -22 -51 -37 0 -4 10 -5 23 -2 19 4 18 2 -5
-12 -34 -19 -48 -44 -48 -86 0 -32 22 -57 150 -174 81 -73 306 -145 720 -229
41 -8 113 -24 160 -35 132 -32 463 -77 695 -96 39 -3 95 -8 125 -10 92 -9 574
-34 760 -41 96 -3 229 -8 295 -11 447 -16 1584 -5 2125 22 52 3 185 7 295 10
318 9 484 23 830 71 310 43 876 158 1012 205 195 68 426 177 378 180 -11 0
-14 3 -7 6 6 2 12 11 12 18 0 20 21 30 30 15 11 -18 30 -3 30 26 0 13 5 24 11
24 16 0 0 41 -25 62 -11 9 -34 18 -51 18 -26 1 -27 3 -10 10 43 19 85 11 117
-20 36 -37 45 -33 28 12 -18 46 -21 48 -76 57 l-49 9 52 1 c44 1 54 -3 71 -24
25 -32 30 -32 24 0 -5 30 -37 55 -72 56 -23 1 -23 2 5 9 l30 7 -28 8 c-15 4
-46 5 -68 1 -27 -4 -38 -3 -34 4 3 5 19 10 36 10 31 0 39 14 13 24 -27 10 -49
7 -92 -14 -52 -25 -55 -41 -4 -30 31 8 34 7 20 -4 -27 -20 -22 -26 15 -21 l32
5 -32 -15 c-17 -8 -35 -21 -40 -28 -17 -30 -113 -54 -113 -28 0 11 35 21 75
21 23 0 27 3 15 10 -8 6 -37 8 -65 6 l-50 -5 40 13 39 13 -34 16 c-35 18 -65
23 -40 7 12 -8 9 -10 -14 -10 -20 0 -27 4 -23 14 5 14 -30 36 -58 36 -8 0 -16
3 -18 8 -3 4 21 7 54 7 40 -1 60 4 64 13 3 7 13 11 22 8 14 -4 18 0 19 19 2
21 -1 23 -16 15 -32 -17 -40 -12 -29 16 9 26 9 27 -28 22 -21 -3 -47 -2 -58 3
l-20 8 20 1 c19 1 19 2 -1 10 -25 10 -91 -9 -106 -31 -8 -12 -9 -11 -6 1 3 8
18 21 34 29 40 20 13 26 -44 10 -26 -7 -47 -11 -48 -8 0 2 -8 -2 -17 -9 -12
-11 -17 -11 -23 0 -4 7 -4 10 1 6 5 -5 15 2 23 13 9 13 17 17 21 10 4 -6 17
-7 31 -4 l25 7 -25 7 c-45 13 -88 10 -94 -6 -3 -8 -14 -15 -24 -15 -10 0 -23
-5 -30 -12 -6 -6 -14 -9 -17 -6 -3 2 11 13 30 24 71 38 33 45 -78 13 -43 -12
-100 -20 -142 -20 -38 0 -88 -4 -110 -8 -32 -7 -20 -9 58 -8 70 0 101 -3 107
-12 5 -9 10 -10 14 -2 10 15 65 9 59 -6 -6 -16 -1 -16 67 -3 41 8 62 7 98 -5
25 -9 52 -13 60 -10 10 3 12 0 8 -10 -4 -12 3 -15 32 -13 21 0 47 -4 58 -11
17 -11 17 -12 -9 -8 -22 4 -25 2 -16 -10 13 -15 16 -16 -110 36 -77 31 -115
33 -137 4 -12 -15 -62 -21 -229 -28 -96 -4 -97 -3 -25 5 41 4 86 12 100 18 22
9 23 11 7 17 -9 4 -31 5 -47 3 -18 -3 -31 0 -34 9 -4 9 -32 13 -103 14 -54 1
-86 4 -71 6 17 3 25 9 22 18 -3 7 -1 16 5 20 6 3 11 3 11 -2 0 -13 231 -3 279
13 25 8 56 14 70 15 47 2 -36 17 -159 29 -63 6 -167 18 -230 26 -63 9 -151 20
-195 25 -44 5 -140 16 -214 25 -111 14 -135 14 -142 3 -6 -10 -10 -7 -18 13
-16 43 -98 367 -117 461 -13 66 -21 87 -33 87 -11 0 -12 3 -4 8 6 4 9 19 6 35
-4 22 -8 25 -15 15 -6 -8 -7 -1 -3 21 6 25 4 32 -5 26 -10 -6 -11 -1 -6 19 5
20 4 26 -5 20 -9 -5 -10 -1 -7 14 4 14 2 20 -5 15 -6 -4 -8 2 -4 17 6 23 -17
138 -53 260 -10 36 -32 123 -49 194 -16 71 -34 132 -38 135 -4 3 -9 15 -9 26
-5 73 -63 240 -97 276 -17 18 -18 22 -4 16 17 -6 23 4 10 17 -4 3 -8 17 -10
29 -2 12 -7 23 -12 25 -4 1 -5 23 -1 47 4 24 3 42 -2 39 -4 -3 -8 0 -8 5 0 6
-7 11 -15 11 -8 0 -15 7 -15 16 0 14 3 14 18 3 15 -11 15 -11 4 1 -7 8 -18 15
-25 15 -7 0 -12 10 -11 22 0 13 -4 19 -12 16 -9 -3 -11 2 -7 18 4 15 2 20 -5
15 -6 -3 -30 13 -53 36 -24 24 -40 37 -35 31 4 -7 2 -13 -3 -13 -6 0 -11 6
-12 13 0 6 -5 -1 -11 -16 -8 -22 -13 -26 -24 -16 -17 14 -19 -6 -5 -44 6 -14
6 -29 0 -38 -7 -11 -9 -8 -9 9 0 13 -7 48 -16 78 -9 31 -13 62 -10 70 3 8 2
13 -3 9 -5 -3 -19 11 -31 30 -12 20 -34 44 -49 53 -14 9 -28 19 -31 22 -9 11
-95 40 -118 40 -28 0 -29 -25 -2 -77 10 -21 31 -63 45 -93 22 -45 23 -51 6
-30 -11 14 -21 31 -21 38 0 6 -6 12 -13 12 -13 0 -47 34 -47 48 0 4 -14 24
-30 44 -40 48 -126 97 -189 107 -49 8 -49 7 -59 -23 l-10 -31 -1 28 c-1 17 -7
27 -16 27 -8 0 -15 4 -15 9 0 5 -11 11 -25 13 -13 3 -22 1 -19 -3 11 -18 -7
-29 -26 -17 -10 7 -17 15 -15 19 3 3 -6 7 -19 7 -13 0 -34 9 -46 20 -23 21
-105 33 -141 20 -11 -5 -19 -3 -19 4 0 7 -18 9 -51 6 -48 -5 -99 8 -99 25 0 8
-112 7 -155 -2z m-2411 -2416 c27 -8 52 -12 56 -10 16 10 31 -13 25 -38 -4
-15 -12 -24 -17 -21 -5 4 -21 1 -34 -7 -19 -10 -47 -10 -127 -2 -56 5 -106 7
-111 5 -14 -8 36 -31 69 -33 30 -1 30 -1 5 -9 -24 -8 -24 -8 -2 -9 12 -1 22
-7 22 -14 0 -9 -12 -11 -42 -8 -24 3 -35 6 -25 9 19 4 23 17 7 27 -5 3 -31 9
-57 12 -47 5 -82 22 -52 24 7 1 17 1 22 0 11 -2 9 17 -3 21 -5 2 -6 9 -1 17 7
11 13 10 36 -5 19 -12 51 -18 108 -21 45 -1 76 0 70 3 -28 13 -10 24 37 24 28
0 50 4 50 8 0 8 -56 26 -122 39 -16 3 -28 9 -28 13 0 5 15 4 33 -1 17 -6 54
-17 81 -24z m4661 -114 c-6 -5 -19 -11 -30 -14 -21 -5 12 -7 201 -10 67 -1
117 -5 111 -9 -6 -3 3 -9 19 -11 16 -3 -7 -5 -51 -5 -44 0 -105 0 -135 -2 -88
-3 -22 -18 95 -20 69 -2 91 -5 70 -10 -16 -4 -23 -8 -14 -9 25 -2 19 -31 -6
-31 -12 0 -51 -3 -86 -6 -66 -7 -76 3 -17 16 37 8 31 12 -54 30 -32 7 -83 10
-117 7 -34 -3 -61 -1 -61 3 0 5 -15 11 -32 13 -23 3 -18 5 17 5 99 0 116 2
111 10 -3 5 -20 10 -38 11 -18 1 -71 5 -118 10 -84 8 -84 8 -25 10 33 1 69 6
80 11 27 12 92 13 80 1z m-137 -78 c-44 -5 -51 -18 -11 -21 34 -3 39 -8 23
-27 -11 -13 0 -15 99 -15 67 0 111 4 111 10 0 6 -6 11 -12 12 -7 0 -17 2 -23
2 -5 1 -19 7 -30 14 -18 10 -18 11 -2 12 26 0 87 -27 87 -39 0 -6 22 -11 50
-11 28 0 50 -3 50 -7 0 -5 48 -7 107 -7 l108 2 -115 -9 c-63 -5 -126 -14 -140
-19 l-25 -8 28 -2 c93 -7 257 13 269 33 4 8 22 14 39 15 18 0 35 5 38 11 4 6
61 17 126 24 116 13 162 14 97 1 -18 -4 -32 -10 -32 -15 0 -5 -31 -9 -70 -9
-40 0 -70 -4 -70 -10 0 -10 41 -12 195 -12 56 1 72 -2 55 -8 -36 -12 62 -12
115 0 36 8 34 9 -22 6 -81 -3 -82 10 -2 19 47 6 63 4 70 -6 14 -22 11 -27 -23
-32 -18 -3 -53 -10 -78 -17 -34 -8 -50 -8 -67 1 -14 7 -41 9 -75 5 -33 -4 -48
-3 -39 3 20 13 -165 26 -193 13 -11 -6 -42 -13 -68 -17 -27 -3 -48 -11 -48
-16 0 -6 -3 -8 -7 -6 -5 2 -55 -3 -113 -10 -58 -8 -159 -16 -225 -18 l-120 -3
120 9 c118 10 183 29 97 29 -24 0 -53 6 -65 14 -12 8 -65 19 -118 24 -52 6
-111 17 -130 25 l-34 15 30 1 c23 1 27 4 15 11 -8 5 -22 7 -32 4 -9 -2 -19 0
-23 6 -3 6 4 10 17 11 23 1 23 1 -2 9 -18 6 -6 8 40 7 37 0 49 -2 28 -4z m812
-122 c0 -5 17 -7 38 -4 20 2 50 0 66 -6 23 -9 26 -14 16 -26 -8 -10 -31 -15
-70 -15 -56 0 -159 -15 -168 -25 -12 -11 10 -15 89 -16 46 -1 112 4 147 11 61
12 69 23 27 33 -11 3 14 5 55 6 41 0 89 -3 107 -8 21 -6 35 -5 43 2 10 9 14 9
17 0 3 -7 14 -13 26 -13 11 0 18 -2 16 -4 -5 -6 -116 -18 -148 -17 -14 1 -35
-6 -47 -14 -19 -12 -58 -15 -209 -13 -210 3 -246 -11 -78 -28 l108 -12 -82 1
c-45 1 -85 -2 -89 -6 -4 -4 0 -7 9 -7 20 0 23 -16 5 -23 -7 -3 -3 -6 10 -6 13
-1 21 -5 18 -10 -3 -4 -18 -7 -33 -5 -99 13 -193 16 -193 6 0 -6 8 -13 18 -15
9 -3 -32 -6 -93 -7 -79 -2 -99 -4 -72 -10 51 -10 58 -20 14 -20 -48 0 -47 -13
1 -28 l37 -11 -35 5 c-97 15 -150 20 -150 13 0 -9 94 -39 122 -39 10 0 18 -6
18 -12 0 -9 2 -10 8 -2 4 6 16 8 26 4 25 -8 9 -15 -58 -25 -35 -6 -45 -10 -36
-19 12 -12 16 -13 57 -15 41 -2 19 -13 -33 -17 -26 -2 -53 -9 -62 -16 -12 -10
-16 -10 -19 0 -3 6 -9 12 -14 12 -6 0 -8 -4 -4 -9 10 -17 -14 -22 -37 -9 -13
7 -27 12 -32 13 -5 0 -11 5 -13 10 -2 6 16 10 39 10 35 0 42 3 40 18 -2 9 3
17 12 17 10 0 12 7 8 22 -3 13 -7 17 -10 10 -3 -10 -7 -9 -16 3 -6 9 -38 22
-71 30 -73 17 -352 41 -362 32 -18 -19 24 -30 124 -34 129 -4 170 -10 179 -25
5 -8 -13 -9 -65 -5 -84 7 -86 -4 -4 -23 101 -22 124 -30 70 -24 -29 3 -54 1
-62 -6 -7 -6 -30 -12 -50 -14 -20 -2 -46 -12 -57 -23 -18 -18 -18 -22 -4 -35
14 -14 13 -16 -9 -21 -14 -2 -25 0 -25 5 0 5 -22 6 -49 2 -29 -4 -56 -2 -67 5
-16 9 -13 10 19 11 25 0 37 4 35 12 -3 7 -33 13 -79 14 -41 2 -86 6 -102 8
-20 4 -30 0 -39 -14 -7 -11 -17 -16 -23 -11 -10 8 -99 30 -207 51 -32 6 -58
15 -58 20 0 5 -7 7 -15 4 -8 -4 -15 -2 -15 4 0 5 -16 12 -35 14 -25 3 -34 0
-31 -8 2 -6 -1 -17 -7 -23 -8 -8 -7 -11 5 -11 8 0 22 -7 29 -16 12 -15 11 -16
-11 -9 -14 4 -33 13 -43 20 -16 11 -16 13 -2 18 8 4 15 16 15 27 0 25 42 28
86 6 38 -19 178 -47 232 -48 34 0 42 -3 38 -14 -3 -9 -1 -12 4 -9 16 10 11 41
-9 59 -19 18 -26 20 -108 31 -71 9 -74 20 -7 18 30 0 56 3 60 8 3 5 -3 9 -13
10 -10 0 -6 4 11 9 16 5 33 7 38 4 5 -3 29 -6 53 -6 25 0 45 -4 45 -9 0 -5
-15 -9 -34 -9 -19 0 -38 -4 -41 -10 -4 -6 10 -10 35 -10 37 0 41 -2 35 -20 -5
-14 -2 -18 7 -15 8 3 24 -6 36 -20 12 -14 28 -26 34 -26 7 -1 27 -3 43 -4 135
-15 165 -11 165 16 0 15 -62 38 -125 46 -39 4 -50 8 -32 11 15 2 27 9 27 15 0
14 -81 54 -120 60 -14 2 -1 5 29 6 46 1 52 3 41 16 -11 13 -6 15 33 15 25 0
47 -5 49 -10 7 -21 308 -50 308 -30 0 7 22 10 60 8 96 -5 71 16 -33 27 -67 7
-93 14 -90 23 5 14 55 16 69 2 13 -13 175 -21 211 -10 21 6 6 9 -56 9 -86 1
-108 10 -33 13 59 2 74 15 26 23 -59 10 -65 16 -12 11 27 -2 45 0 42 5 -3 6
41 7 105 3 81 -5 111 -4 111 4 0 7 -19 13 -47 14 -39 1 -41 2 -13 5 88 8 120
15 115 24 -4 5 -16 9 -28 9 -18 0 -19 2 -7 10 10 7 -13 10 -75 11 -49 1 -103
5 -120 9 -20 6 2 8 64 6 64 -2 97 1 106 10 7 7 21 11 31 9 10 -2 30 -4 44 -6
16 -1 8 -5 -20 -9 -33 -5 -15 -7 68 -8 81 -2 111 1 106 9 -3 6 0 15 7 20 9 5
-14 9 -61 11 l-75 2 70 6 c112 10 135 11 135 1z m555 -93 c25 -35 35 -55 34
-68 0 -11 -2 -12 -6 -2 -4 10 -10 9 -27 -6 -25 -24 -66 -14 -66 16 0 15 -6 18
-30 14 -44 -6 -45 -18 -3 -46 47 -32 36 -34 -18 -3 -37 20 -41 21 -50 5 -8
-15 -12 -15 -37 -2 -15 7 -47 14 -72 15 -42 1 -40 2 34 19 43 10 83 23 89 29
6 6 19 11 28 11 9 0 30 7 45 15 24 12 71 14 79 3z m-6885 -27 c3 -4 32 -11 65
-15 33 -4 64 -11 69 -16 6 -6 25 -10 42 -10 18 0 35 -4 38 -9 3 -5 -38 -9 -91
-10 -53 -1 -100 -4 -104 -7 -5 -3 -63 -7 -130 -10 -78 -3 -131 -10 -149 -19
-36 -19 -44 -19 -37 -1 8 20 -3 27 -23 16 -10 -5 -20 -6 -24 -2 -4 3 -17 7
-28 7 -35 0 -31 22 5 34 36 12 108 4 74 -8 -15 -6 -15 -7 3 -19 13 -8 20 -8
20 -2 0 7 36 10 100 8 54 -1 102 1 106 5 4 4 2 7 -4 7 -7 0 -12 4 -12 8 0 5
15 7 33 4 26 -4 30 -2 19 9 -6 7 -46 16 -90 19 -42 4 -71 8 -64 8 7 1 10 7 6
14 -8 13 166 3 176 -11z m400 -81 l-25 -19 23 6 c13 3 26 12 29 19 3 9 21 14
47 14 33 -1 38 -3 23 -11 -10 -6 -25 -8 -32 -5 -8 3 -17 0 -21 -6 -4 -7 -3 -8
4 -4 7 4 12 2 12 -3 0 -16 199 -14 305 4 91 15 132 18 124 11 -2 -2 -22 -7
-44 -10 -22 -4 -67 -11 -100 -16 -33 -5 -83 -10 -112 -11 -29 -1 -50 -6 -47
-11 3 -4 -7 -8 -21 -8 -15 0 -24 4 -20 10 3 6 -1 7 -9 4 -18 -7 -22 -34 -6
-34 6 0 10 -4 10 -10 0 -6 -58 -10 -154 -10 -97 0 -157 -4 -161 -10 -5 -8 -11
-7 -20 0 -8 7 -30 9 -52 6 -27 -4 -34 -3 -23 4 8 5 65 10 125 10 111 0 250 24
239 41 -6 11 -150 11 -264 -1 -49 -4 -89 -4 -94 1 -6 5 16 9 55 9 77 0 117 9
97 21 -9 6 -6 9 10 9 13 0 20 4 17 10 -4 6 16 10 52 10 l58 0 -25 -20z m5886
-2 c-4 6 7 6 32 0 20 -6 48 -10 62 -10 81 -1 180 -29 180 -52 0 -4 -6 -4 -12
1 -25 19 -104 34 -170 31 -38 -2 -67 -7 -65 -11 1 -5 5 -7 7 -6 8 4 50 -21 50
-30 0 -5 -29 -6 -65 -3 -54 4 -66 2 -71 -12 -3 -9 -10 -13 -15 -10 -5 3 -9 1
-9 -4 0 -16 -31 -23 -46 -12 -7 6 -18 10 -26 9 -7 -1 -24 0 -38 1 l-25 2 24 7
c34 9 39 31 7 31 -39 0 -31 18 12 25 20 4 45 9 55 12 9 2 17 0 17 -6 0 -6 -5
-11 -12 -11 -6 0 -8 -3 -4 -7 11 -11 106 -11 113 0 3 6 1 7 -5 3 -7 -4 -12 -2
-12 5 0 7 -10 9 -30 6 -36 -8 -50 8 -15 17 14 4 25 13 25 22 0 12 4 13 21 3
12 -6 19 -7 15 -1z"/>
</g>
</svg>
