<?xml version="1.0" standalone="no"?>
<!DOCTYPE svg PUBLIC "-//W3C//DTD SVG 20010904//EN"
 "http://www.w3.org/TR/2001/REC-SVG-20010904/DTD/svg10.dtd">
<svg version="1.0" xmlns="http://www.w3.org/2000/svg"
 width="840.000000pt" height="512.000000pt" viewBox="0 0 840.000000 512.000000"
 preserveAspectRatio="xMidYMid meet">
<metadata>
Created by potrace 1.16, written by Peter Selinger 2001-2019
</metadata>
<g transform="translate(0.000000,512.000000) scale(0.100000,-0.100000)"
fill="#000000" stroke="none">
<path d="M4082 3979 c-78 -14 -175 -61 -233 -116 -163 -152 -259 -416 -333
-913 -17 -117 -25 -145 -37 -144 -12 1 -22 -23 -39 -97 -19 -79 -27 -99 -41
-99 -88 0 -870 92 -1143 135 -88 14 -164 25 -169 25 -13 0 -2 -144 18 -245 43
-213 158 -465 294 -646 93 -124 282 -310 401 -395 480 -344 1111 -489 1799
-413 874 96 1490 584 1666 1322 13 56 28 135 33 176 l9 74 -76 -7 c-555 -46
-1405 -95 -1418 -82 -2 2 -11 42 -20 89 -12 60 -21 87 -32 90 -12 3 -22 45
-44 183 -97 620 -231 953 -420 1039 -61 28 -141 37 -215 24z m-67 -111 c-172
-190 -312 -487 -389 -823 -29 -129 -32 -106 -10 67 40 306 143 577 274 721 52
57 118 97 158 97 21 0 18 -7 -33 -62z m145 -1324 c411 -23 647 -40 652 -47 3
-6 12 -40 18 -76 21 -117 29 -141 49 -141 14 0 24 -22 49 -107 18 -59 30 -109
27 -111 -5 -5 -1628 19 -1634 24 -11 9 42 207 60 225 10 10 20 29 21 42 0 12
2 36 3 52 1 17 7 65 14 107 l14 77 41 -4 c22 -3 331 -21 686 -41z m1793 -269
c13 -8 36 -38 51 -65 21 -39 25 -54 16 -69 -23 -45 -78 -34 -100 19 -31 74
-86 2 -154 -204 -20 -60 -45 -124 -57 -142 -43 -70 -108 -80 -239 -38 -98 31
-175 44 -213 37 -53 -10 -61 -39 -62 -217 0 -132 -4 -168 -18 -201 -36 -81
-113 -135 -192 -135 -80 0 -144 40 -303 193 -165 160 -226 197 -287 177 -47
-16 -85 -62 -146 -182 -61 -117 -107 -173 -164 -199 -58 -27 -103 -23 -173 12
-73 36 -124 91 -188 203 -63 109 -97 150 -140 171 -53 25 -106 14 -252 -50
-204 -91 -266 -94 -338 -20 -51 52 -73 113 -84 234 -9 102 -20 128 -56 137
-37 9 -145 -23 -210 -62 -31 -19 -64 -34 -74 -34 -25 0 -42 25 -38 57 2 22 15
35 57 60 123 74 280 100 337 57 55 -40 65 -65 80 -189 17 -134 31 -176 68
-200 36 -24 73 -16 203 43 140 65 173 75 249 75 75 0 138 -28 183 -79 17 -18
56 -77 87 -131 66 -112 111 -164 158 -187 79 -37 119 -11 195 131 105 196 167
253 274 253 94 0 148 -33 315 -193 80 -76 162 -147 183 -158 55 -28 100 -25
131 9 40 43 48 84 48 241 0 132 2 151 23 191 33 66 65 84 151 88 72 4 144 -10
279 -52 44 -14 48 -14 65 4 9 10 32 65 51 122 87 266 180 362 284 293z"/>
</g>
</svg>
