<?xml version="1.0" standalone="no"?>
<!DOCTYPE svg PUBLIC "-//W3C//DTD SVG 20010904//EN"
 "http://www.w3.org/TR/2001/REC-SVG-20010904/DTD/svg10.dtd">
<svg version="1.0" xmlns="http://www.w3.org/2000/svg"
 width="250.000000pt" height="250.000000pt" viewBox="0 0 250.000000 250.000000"
 preserveAspectRatio="xMidYMid meet">
<metadata>
Created by potrace 1.16, written by Peter Selinger 2001-2019
</metadata>
<g transform="translate(0.000000,250.000000) scale(0.100000,-0.100000)"
fill="#000000" stroke="none">
<path d="M1300 1803 c-73 -28 -152 -28 -208 1 -17 9 -49 16 -71 16 -34 0 -45
-6 -83 -48 -80 -90 -218 -280 -242 -334 -18 -40 -29 -99 -45 -238 -12 -102
-29 -204 -37 -227 -15 -38 -20 -42 -60 -48 -24 -3 -51 -2 -60 3 -9 5 -108 101
-220 213 -112 112 -206 200 -210 196 -11 -11 25 -126 66 -212 47 -98 97 -151
214 -227 178 -115 407 -212 601 -254 105 -23 327 -23 451 -1 182 33 397 120
591 241 182 112 244 193 298 386 22 78 24 95 13 107 -19 18 -26 12 -145 -132
-55 -67 -138 -160 -184 -208 -72 -75 -89 -87 -116 -87 -18 0 -33 5 -33 11 0 5
-4 7 -10 4 -5 -3 -10 2 -10 11 0 10 -6 25 -14 33 -8 9 -29 105 -49 229 -32
193 -39 218 -72 280 -34 60 -167 224 -227 278 -36 33 -67 35 -138 7z"/>
</g>
</svg>
