<?xml version="1.0" standalone="no"?>
<!DOCTYPE svg PUBLIC "-//W3C//DTD SVG 20010904//EN"
 "http://www.w3.org/TR/2001/REC-SVG-20010904/DTD/svg10.dtd">
<svg version="1.0" xmlns="http://www.w3.org/2000/svg"
 width="599.000000pt" height="281.000000pt" viewBox="0 0 599.000000 281.000000"
 preserveAspectRatio="xMidYMid meet">
<metadata>
Created by potrace 1.16, written by Peter Selinger 2001-2019
</metadata>
<g transform="translate(0.000000,281.000000) scale(0.100000,-0.100000)"
fill="#000000" stroke="none">
<path d="M2850 2694 c-30 -8 -83 -28 -117 -45 -321 -156 -606 -639 -647 -1095
l-7 -70 53 -17 c157 -49 417 -70 853 -70 445 0 704 23 863 74 29 9 32 14 32
49 0 21 -9 89 -20 152 -74 431 -352 852 -652 987 -115 52 -246 65 -358 35z"/>
<path d="M70 1354 c-24 -63 27 -243 125 -439 91 -181 77 -171 161 -129 67 34
72 35 164 32 120 -4 174 -29 282 -127 136 -127 186 -125 336 12 109 99 161
120 287 115 114 -4 155 -23 266 -123 89 -81 130 -100 192 -92 43 6 46 8 162
109 104 90 159 111 280 106 115 -5 159 -25 267 -125 87 -80 110 -93 163 -93
53 0 78 14 162 91 43 39 103 83 133 98 49 23 67 26 160 26 95 0 110 -3 157
-27 28 -15 85 -59 127 -98 82 -75 108 -90 161 -90 53 0 79 15 161 90 42 39 99
83 127 98 47 24 62 27 157 27 92 0 112 -3 160 -26 30 -14 90 -58 133 -98 83
-77 108 -91 163 -91 49 0 84 21 169 99 107 100 146 116 275 116 94 0 111 -3
160 -27 30 -15 92 -61 137 -102 87 -79 121 -94 187 -82 84 16 195 153 301 371
89 183 137 365 104 392 -11 8 -61 5 -199 -13 -1001 -129 -1927 -197 -2705
-197 -494 0 -898 18 -1505 68 -353 29 -1009 100 -1250 134 -161 24 -149 24
-160 -5z"/>
<path d="M446 587 l-28 -12 58 -59 c196 -196 380 -265 916 -345 536 -80 905
-105 1583 -105 520 0 665 5 1055 40 432 39 946 124 1083 179 67 28 183 91 192
105 3 5 -9 17 -26 26 -18 9 -65 47 -104 84 -82 78 -120 100 -169 100 -55 0
-83 -15 -164 -91 -42 -38 -101 -82 -132 -97 -49 -24 -66 -27 -160 -27 -96 0
-110 3 -159 29 -30 15 -87 59 -127 97 -78 74 -105 89 -159 89 -53 0 -78 -14
-162 -90 -43 -40 -100 -84 -128 -98 -45 -25 -60 -27 -160 -27 -100 0 -114 2
-162 27 -28 15 -85 59 -127 98 -82 75 -108 90 -161 90 -54 0 -81 -15 -159 -89
-40 -38 -97 -82 -127 -97 -49 -26 -63 -29 -159 -29 -94 0 -111 3 -160 27 -31
15 -90 59 -132 97 -81 76 -109 91 -164 91 -49 0 -84 -21 -168 -98 -108 -100
-148 -117 -276 -117 -131 0 -165 14 -276 115 -146 133 -202 134 -339 6 -38
-36 -95 -78 -125 -93 -50 -25 -65 -28 -160 -28 -129 0 -168 16 -275 116 -40
37 -87 75 -104 83 -35 19 -95 20 -135 3z"/>
</g>
</svg>
