<?xml version="1.0" standalone="no"?>
<!DOCTYPE svg PUBLIC "-//W3C//DTD SVG 20010904//EN"
 "http://www.w3.org/TR/2001/REC-SVG-20010904/DTD/svg10.dtd">
<svg version="1.0" xmlns="http://www.w3.org/2000/svg"
 width="626.000000pt" height="626.000000pt" viewBox="0 0 626.000000 626.000000"
 preserveAspectRatio="xMidYMid meet">
<metadata>
Created by potrace 1.16, written by Peter Selinger 2001-2019
</metadata>
<g transform="translate(0.000000,626.000000) scale(0.100000,-0.100000)"
fill="#000000" stroke="none">
<path d="M2655 5380 c-498 -29 -882 -93 -970 -161 -32 -26 -32 -38 14 -192
126 -425 218 -1052 239 -1637 l7 -195 115 -33 c298 -85 712 -132 1170 -132
l235 0 1 -27 c6 -115 6 -322 0 -339 -6 -19 -16 -22 -119 -27 -460 -27 -1024
33 -1341 143 -33 11 -62 20 -67 20 -4 0 -9 -40 -11 -89 -1 -49 -6 -93 -11 -97
-4 -4 -60 2 -125 14 -272 50 -454 54 -564 13 -67 -26 -131 -90 -147 -147 -17
-59 -14 -279 4 -349 83 -320 461 -708 910 -932 383 -192 854 -286 1282 -255
371 27 719 122 1031 281 457 234 817 586 928 911 15 44 19 84 19 200 0 159
-10 193 -72 252 -94 90 -308 109 -637 58 -71 -11 -132 -20 -136 -20 -4 0 -10
37 -13 81 -3 45 -10 85 -17 89 -7 4 -9 23 -5 51 4 33 3 39 -5 24 -7 -16 -8
-13 -4 15 11 71 11 260 0 260 -6 0 -4 5 4 10 8 5 11 10 6 10 -5 0 -4 6 1 13 6
6 13 95 17 197 20 554 112 1188 243 1669 l37 134 -29 23 c-77 61 -349 114
-765 150 -217 18 -994 27 -1225 14z m690 -407 c327 -8 327 -14 -5 -33 -107 -7
-258 -9 -335 -5 -162 7 -518 35 -524 40 -6 7 553 6 864 -2z m660 -3728 c-124
-61 -404 -132 -610 -156 -135 -16 -405 -16 -540 0 -154 18 -448 87 -417 98 7
3 50 -2 95 -11 328 -64 658 -71 1007 -20 101 14 401 83 451 103 51 21 62 9 14
-14z"/>
</g>
</svg>
