<?xml version="1.0" standalone="no"?>
<!DOCTYPE svg PUBLIC "-//W3C//DTD SVG 20010904//EN"
 "http://www.w3.org/TR/2001/REC-SVG-20010904/DTD/svg10.dtd">
<svg version="1.0" xmlns="http://www.w3.org/2000/svg"
 width="778.000000pt" height="663.000000pt" viewBox="0 0 778.000000 663.000000"
 preserveAspectRatio="xMidYMid meet">
<metadata>
Created by potrace 1.16, written by Peter Selinger 2001-2019
</metadata>
<g transform="translate(0.000000,663.000000) scale(0.100000,-0.100000)"
fill="#000000" stroke="none">
<path d="M4148 5940 c-26 -5 -70 -16 -98 -25 -42 -14 -69 -15 -158 -9 -209 17
-236 8 -432 -139 -93 -69 -134 -94 -158 -95 -103 -7 -221 -123 -307 -304 -27
-55 -53 -90 -109 -143 -62 -59 -76 -79 -90 -124 -31 -105 -13 -318 33 -397
l20 -34 -87 -26 c-197 -60 -351 -144 -654 -356 -375 -262 -415 -297 -659 -573
-401 -454 -514 -606 -578 -776 -72 -192 -141 -440 -186 -670 l-17 -87 -39 -11
c-42 -13 -91 -57 -115 -103 -8 -16 -21 -62 -29 -101 -17 -90 -37 -420 -39
-632 -1 -141 2 -169 23 -240 26 -90 61 -164 86 -185 9 -8 33 -14 53 -15 21 -1
62 -11 93 -22 91 -35 193 -43 543 -43 183 0 415 -6 517 -12 226 -15 474 -15
854 0 243 9 309 15 409 36 172 37 225 40 356 22 87 -12 236 -17 620 -21 549
-6 940 -19 1035 -35 33 -6 179 -15 325 -20 190 -7 314 -17 440 -35 254 -37
481 -47 825 -34 160 5 308 15 329 20 53 14 88 52 115 124 39 104 46 171 32
344 -6 86 -18 199 -26 251 -7 52 -16 143 -19 203 -4 71 -13 126 -27 165 -11
31 -27 116 -35 187 -40 358 -148 1022 -199 1228 -60 235 -114 344 -290 572
-34 44 -71 97 -84 117 -30 51 -111 122 -257 228 -186 135 -331 229 -409 265
-76 36 -404 144 -498 165 -46 11 -57 17 -51 29 3 9 10 43 14 76 5 33 18 101
30 150 14 59 20 105 16 133 -10 78 -169 447 -210 492 -13 14 -51 80 -85 146
-64 130 -89 158 -155 175 -22 5 -118 34 -211 64 -271 86 -331 96 -457 75z"/>
</g>
</svg>
