<?xml version="1.0" standalone="no"?>
<!DOCTYPE svg PUBLIC "-//W3C//DTD SVG 20010904//EN"
 "http://www.w3.org/TR/2001/REC-SVG-20010904/DTD/svg10.dtd">
<svg version="1.0" xmlns="http://www.w3.org/2000/svg"
 width="512.000000pt" height="512.000000pt" viewBox="0 0 512.000000 512.000000"
 preserveAspectRatio="xMidYMid meet">
<metadata>
Created by potrace 1.16, written by Peter Selinger 2001-2019
</metadata>
<g transform="translate(0.000000,512.000000) scale(0.100000,-0.100000)"
fill="#000000" stroke="none">
<path d="M2655 4193 c-16 -2 -66 -11 -110 -20 -344 -67 -687 -290 -881 -574
-92 -133 -872 -1453 -879 -1487 -5 -26 -11 -32 -23 -26 -10 4 -46 13 -82 21
-224 49 -454 -132 -468 -366 -10 -177 77 -321 244 -398 51 -24 71 -28 154 -28
86 0 101 3 161 31 114 54 190 141 223 253 18 60 21 159 7 207 -9 31 -8 32 28
38 20 3 90 26 156 52 66 25 148 56 182 69 l63 24 -13 -32 c-7 -18 -44 -112
-82 -209 l-70 -177 -35 -6 c-83 -16 -166 -81 -212 -168 -20 -36 -23 -57 -23
-152 0 -100 2 -115 27 -161 15 -28 48 -70 73 -92 89 -78 -63 -72 1855 -72
1580 0 1720 1 1766 17 67 23 154 110 177 177 22 64 22 197 1 259 -31 91 -134
177 -232 193 l-39 6 -123 422 c-67 231 -203 698 -301 1036 -193 664 -214 721
-314 848 -102 130 -258 236 -430 293 -67 22 -85 23 -420 25 -192 1 -363 0
-380 -3z m333 -209 c12 -8 22 -26 22 -39 0 -39 -35 -55 -120 -55 -83 0 -120
16 -120 52 0 45 27 58 114 58 58 0 88 -5 104 -16z m-355 -35 c19 -26 11 -58
-17 -69 -11 -4 -66 -22 -121 -39 -239 -73 -435 -215 -581 -421 -66 -93 -94
-109 -128 -71 -17 18 -17 24 -5 53 22 53 122 179 208 261 132 126 275 212 454
272 120 41 169 44 190 14z m-1916 -1961 c191 -71 249 -321 110 -475 -52 -57
-118 -87 -203 -91 -62 -4 -81 0 -133 23 -112 51 -175 147 -175 270 1 208 204
347 401 273z m3969 -538 c16 -6 42 -23 57 -38 49 -46 61 -80 62 -167 0 -69 -4
-86 -27 -125 -16 -28 -43 -55 -70 -70 l-43 -25 -1694 -3 c-1162 -1 -1705 1
-1732 8 -46 13 -103 60 -126 104 -11 21 -17 56 -17 111 0 55 6 90 17 111 21
41 80 92 115 100 15 3 32 8 37 10 6 2 771 2 1701 -1 1179 -3 1700 -8 1720 -15z"/>
</g>
</svg>
